<svg xmlns="http://www.w3.org/2000/svg" viewBox="0 0 500 500"><g id="freepik--background-complete--inject-7"><polygon points="454.23 211.86 454.23 329.18 217.35 329.18 217.35 233.58 237.9 233.58 237.9 258.54 243.19 258.54 243.19 214.92 269.32 214.92 269.32 256.32 272.78 256.32 272.78 203.81 295.49 203.81 295.49 218.22 307.13 218.22 307.13 236.16 310.66 236.16 310.66 224.88 331.31 224.88 331.31 258.53 337.34 258.53 337.34 231.18 356.23 231.18 356.23 210.39 369.06 210.39 369.06 198.56 383.92 198.56 383.92 251.05 388.92 251.05 388.92 229.14 413.38 229.14 413.38 260.5 416.76 260.5 416.76 234.91 441.58 234.91 441.58 211.86 454.23 211.86" style="fill:#ebebeb"></polygon><rect x="219.87" y="236.72" width="3.48" height="4.77" style="fill:#fff"></rect><rect x="225.89" y="236.72" width="3.48" height="4.77" style="fill:#fff"></rect><rect x="231.92" y="236.72" width="3.48" height="4.77" style="fill:#fff"></rect><rect x="219.87" y="243.9" width="3.48" height="4.77" style="fill:#fff"></rect><rect x="225.89" y="243.9" width="3.48" height="4.77" style="fill:#fff"></rect><rect x="231.92" y="243.9" width="3.48" height="4.77" style="fill:#fff"></rect><rect x="219.87" y="251.08" width="3.48" height="4.77" style="fill:#fff"></rect><rect x="225.89" y="251.08" width="3.48" height="4.77" style="fill:#fff"></rect><rect x="231.92" y="251.08" width="3.48" height="4.77" style="fill:#fff"></rect><rect x="219.87" y="258.26" width="3.48" height="4.77" style="fill:#fff"></rect><rect x="225.89" y="258.26" width="3.48" height="4.77" style="fill:#fff"></rect><rect x="231.92" y="258.26" width="3.48" height="4.77" style="fill:#fff"></rect><rect x="340.25" y="234.58" width="3.48" height="3.98" style="fill:#fff"></rect><rect x="346.27" y="234.58" width="3.48" height="3.98" style="fill:#fff"></rect><rect x="352.3" y="234.58" width="3.48" height="3.98" style="fill:#fff"></rect><rect x="340.25" y="240.57" width="3.48" height="3.98" style="fill:#fff"></rect><rect x="346.27" y="240.57" width="3.48" height="3.98" style="fill:#fff"></rect><rect x="352.3" y="240.57" width="3.48" height="3.98" style="fill:#fff"></rect><rect x="340.25" y="246.56" width="3.48" height="3.98" style="fill:#fff"></rect><rect x="346.27" y="246.56" width="3.48" height="3.98" style="fill:#fff"></rect><rect x="352.3" y="246.56" width="3.48" height="3.98" style="fill:#fff"></rect><rect x="340.25" y="252.55" width="3.48" height="3.98" style="fill:#fff"></rect><rect x="346.27" y="252.55" width="3.48" height="3.98" style="fill:#fff"></rect><rect x="352.3" y="252.55" width="3.48" height="3.98" style="fill:#fff"></rect><rect x="340.25" y="258.69" width="3.48" height="3.98" style="fill:#fff"></rect><rect x="346.27" y="258.69" width="3.48" height="3.98" style="fill:#fff"></rect><rect x="352.3" y="258.69" width="3.48" height="3.98" style="fill:#fff"></rect><rect x="340.25" y="264.83" width="3.48" height="3.98" style="fill:#fff"></rect><rect x="346.27" y="264.83" width="3.48" height="3.98" style="fill:#fff"></rect><rect x="352.3" y="264.83" width="3.48" height="3.98" style="fill:#fff"></rect><rect x="340.25" y="270.97" width="3.48" height="3.98" style="fill:#fff"></rect><rect x="346.27" y="270.97" width="3.48" height="3.98" style="fill:#fff"></rect><rect x="352.3" y="270.97" width="3.48" height="3.98" style="fill:#fff"></rect><rect x="340.25" y="277.1" width="3.48" height="3.98" style="fill:#fff"></rect><rect x="346.27" y="277.1" width="3.48" height="3.98" style="fill:#fff"></rect><rect x="352.3" y="277.1" width="3.48" height="3.98" style="fill:#fff"></rect><rect x="246.15" y="217.98" width="20.02" height="2.98" style="fill:#fff"></rect><rect x="246.15" y="223.77" width="20.02" height="2.98" style="fill:#fff"></rect><rect x="246.15" y="229.56" width="20.02" height="2.98" style="fill:#fff"></rect><rect x="246.15" y="235.35" width="20.02" height="2.98" style="fill:#fff"></rect><rect x="246.15" y="241.14" width="20.02" height="2.98" style="fill:#fff"></rect><rect x="246.15" y="246.93" width="20.02" height="2.98" style="fill:#fff"></rect><rect x="246.15" y="252.72" width="20.02" height="2.98" style="fill:#fff"></rect><rect x="246.15" y="258.51" width="20.02" height="2.98" style="fill:#fff"></rect><rect x="391.87" y="231.93" width="18.4" height="2.98" style="fill:#fff"></rect><rect x="391.87" y="237.72" width="18.4" height="2.98" style="fill:#fff"></rect><rect x="391.87" y="243.51" width="18.4" height="2.98" style="fill:#fff"></rect><rect x="391.87" y="249.3" width="18.4" height="2.98" style="fill:#fff"></rect><rect x="391.87" y="255.09" width="18.4" height="2.98" style="fill:#fff"></rect><rect x="391.87" y="260.88" width="18.4" height="2.98" style="fill:#fff"></rect><rect x="391.87" y="266.67" width="18.4" height="2.98" style="fill:#fff"></rect><rect x="391.87" y="272.46" width="18.4" height="2.98" style="fill:#fff"></rect><rect x="391.87" y="277.96" width="18.4" height="2.98" style="fill:#fff"></rect><rect x="391.87" y="283.46" width="18.4" height="2.98" style="fill:#fff"></rect><rect x="391.87" y="288.97" width="18.4" height="2.98" style="fill:#fff"></rect><rect x="391.87" y="294.47" width="18.4" height="2.98" style="fill:#fff"></rect><rect x="391.87" y="299.97" width="18.4" height="2.98" style="fill:#fff"></rect><rect x="420.59" y="238.92" width="19.44" height="2.98" style="fill:#fff"></rect><rect x="420.59" y="244.71" width="19.44" height="2.98" style="fill:#fff"></rect><rect x="420.59" y="250.5" width="19.44" height="2.98" style="fill:#fff"></rect><rect x="420.59" y="256.29" width="19.44" height="2.98" style="fill:#fff"></rect><rect x="420.59" y="262.08" width="19.44" height="2.98" style="fill:#fff"></rect><rect x="420.59" y="267.87" width="19.44" height="2.98" style="fill:#fff"></rect><rect x="420.59" y="273.66" width="19.44" height="2.98" style="fill:#fff"></rect><rect x="420.59" y="279.45" width="19.44" height="2.98" style="fill:#fff"></rect><rect x="420.59" y="284.64" width="19.44" height="2.98" style="fill:#fff"></rect><rect x="420.59" y="289.82" width="19.44" height="2.98" style="fill:#fff"></rect><rect x="420.59" y="295" width="19.44" height="2.98" style="fill:#fff"></rect><rect x="316.7" y="227.58" width="6.18" height="2.88" style="fill:#fff"></rect><rect x="316.7" y="233.17" width="6.18" height="2.88" style="fill:#fff"></rect><rect x="316.7" y="238.76" width="6.18" height="2.88" style="fill:#fff"></rect><rect x="316.7" y="244.36" width="6.18" height="2.88" style="fill:#fff"></rect><rect x="316.7" y="249.95" width="6.18" height="2.88" style="fill:#fff"></rect><rect x="316.7" y="255.54" width="6.18" height="2.88" style="fill:#fff"></rect><rect x="316.7" y="261.13" width="6.18" height="2.88" style="fill:#fff"></rect><rect x="316.7" y="266.72" width="6.18" height="2.88" style="fill:#fff"></rect><rect x="325.11" y="227.58" width="6.18" height="2.88" style="fill:#fff"></rect><rect x="325.11" y="233.17" width="6.18" height="2.88" style="fill:#fff"></rect><rect x="325.11" y="238.76" width="6.18" height="2.88" style="fill:#fff"></rect><rect x="325.11" y="244.36" width="6.18" height="2.88" style="fill:#fff"></rect><rect x="325.11" y="249.95" width="6.18" height="2.88" style="fill:#fff"></rect><rect x="325.11" y="255.54" width="6.18" height="2.88" style="fill:#fff"></rect><rect x="325.11" y="261.13" width="6.18" height="2.88" style="fill:#fff"></rect><rect x="325.11" y="266.72" width="6.18" height="2.88" style="fill:#fff"></rect><rect x="276.22" y="206.84" width="6.44" height="4.54" style="fill:#fff"></rect><rect x="285.82" y="206.84" width="6.44" height="4.54" style="fill:#fff"></rect><rect x="276.22" y="213.51" width="6.44" height="4.54" style="fill:#fff"></rect><rect x="285.82" y="213.51" width="6.44" height="4.54" style="fill:#fff"></rect><rect x="276.22" y="220.19" width="6.44" height="4.54" style="fill:#fff"></rect><rect x="285.82" y="220.19" width="6.44" height="4.54" style="fill:#fff"></rect><rect x="276.22" y="226.87" width="6.44" height="4.54" style="fill:#fff"></rect><rect x="285.82" y="226.87" width="6.44" height="4.54" style="fill:#fff"></rect><rect x="276.22" y="233.54" width="6.44" height="4.54" style="fill:#fff"></rect><rect x="285.82" y="233.54" width="6.44" height="4.54" style="fill:#fff"></rect><rect x="276.22" y="240.22" width="6.44" height="4.54" style="fill:#fff"></rect><rect x="285.82" y="240.22" width="6.44" height="4.54" style="fill:#fff"></rect><rect x="276.22" y="246.89" width="6.44" height="4.54" style="fill:#fff"></rect><rect x="285.82" y="246.89" width="6.44" height="4.54" style="fill:#fff"></rect><rect x="276.22" y="253.57" width="6.44" height="4.54" style="fill:#fff"></rect><rect x="285.82" y="253.57" width="6.44" height="4.54" style="fill:#fff"></rect><rect x="297.72" y="220.19" width="6.44" height="4.54" style="fill:#fff"></rect><rect x="297.72" y="226.87" width="6.44" height="4.54" style="fill:#fff"></rect><rect x="297.72" y="233.54" width="6.44" height="4.54" style="fill:#fff"></rect><rect x="297.72" y="240.22" width="6.44" height="4.54" style="fill:#fff"></rect><rect x="297.72" y="246.89" width="6.44" height="4.54" style="fill:#fff"></rect><rect x="297.72" y="253.57" width="6.44" height="4.54" style="fill:#fff"></rect><rect x="276.22" y="260.17" width="6.44" height="4.54" style="fill:#fff"></rect><rect x="285.82" y="260.17" width="6.44" height="4.54" style="fill:#fff"></rect><rect x="297.72" y="260.17" width="6.44" height="4.54" style="fill:#fff"></rect><rect x="276.22" y="266.76" width="6.44" height="4.54" style="fill:#fff"></rect><rect x="285.82" y="266.76" width="6.44" height="4.54" style="fill:#fff"></rect><rect x="297.72" y="266.76" width="6.44" height="4.54" style="fill:#fff"></rect><rect x="276.22" y="273.36" width="6.44" height="4.54" style="fill:#fff"></rect><rect x="285.82" y="273.36" width="6.44" height="4.54" style="fill:#fff"></rect><rect x="297.72" y="273.36" width="6.44" height="4.54" style="fill:#fff"></rect><rect x="276.22" y="279.96" width="6.44" height="4.54" style="fill:#fff"></rect><rect x="285.82" y="279.96" width="6.44" height="4.54" style="fill:#fff"></rect><rect x="297.72" y="279.96" width="6.44" height="4.54" style="fill:#fff"></rect><rect x="276.22" y="286.55" width="6.44" height="4.54" style="fill:#fff"></rect><rect x="285.82" y="286.55" width="6.44" height="4.54" style="fill:#fff"></rect><rect x="297.72" y="286.55" width="6.44" height="4.54" style="fill:#fff"></rect><rect x="358.85" y="213.32" width="3.48" height="3.98" style="fill:#fff"></rect><rect x="364.88" y="213.32" width="3.48" height="3.98" style="fill:#fff"></rect><rect x="358.85" y="219.31" width="3.48" height="3.98" style="fill:#fff"></rect><rect x="364.88" y="219.31" width="3.48" height="3.98" style="fill:#fff"></rect><rect x="358.85" y="225.3" width="3.48" height="3.98" style="fill:#fff"></rect><rect x="364.88" y="225.3" width="3.48" height="3.98" style="fill:#fff"></rect><rect x="358.85" y="231.29" width="3.48" height="3.98" style="fill:#fff"></rect><rect x="364.88" y="231.29" width="3.48" height="3.98" style="fill:#fff"></rect><rect x="358.85" y="237.43" width="3.48" height="3.98" style="fill:#fff"></rect><rect x="364.88" y="237.43" width="3.48" height="3.98" style="fill:#fff"></rect><rect x="358.85" y="243.57" width="3.48" height="3.98" style="fill:#fff"></rect><rect x="364.88" y="243.57" width="3.48" height="3.98" style="fill:#fff"></rect><rect x="358.85" y="249.71" width="3.48" height="3.98" style="fill:#fff"></rect><rect x="364.88" y="249.71" width="3.48" height="3.98" style="fill:#fff"></rect><rect x="358.85" y="255.84" width="3.48" height="3.98" style="fill:#fff"></rect><rect x="364.88" y="255.84" width="3.48" height="3.98" style="fill:#fff"></rect><rect x="358.85" y="262.05" width="3.48" height="3.98" style="fill:#fff"></rect><rect x="364.88" y="262.05" width="3.48" height="3.98" style="fill:#fff"></rect><rect x="358.85" y="268.25" width="3.48" height="3.98" style="fill:#fff"></rect><rect x="364.88" y="268.25" width="3.48" height="3.98" style="fill:#fff"></rect><rect x="358.85" y="274.45" width="3.48" height="3.98" style="fill:#fff"></rect><rect x="364.88" y="274.45" width="3.48" height="3.98" style="fill:#fff"></rect><rect x="358.85" y="280.66" width="3.48" height="3.98" style="fill:#fff"></rect><rect x="364.88" y="280.66" width="3.48" height="3.98" style="fill:#fff"></rect><rect x="443.76" y="213.97" width="3.48" height="4.69" style="fill:#fff"></rect><rect x="449.78" y="213.97" width="3.48" height="4.69" style="fill:#fff"></rect><rect x="443.76" y="221.03" width="3.48" height="4.69" style="fill:#fff"></rect><rect x="449.78" y="221.03" width="3.48" height="4.69" style="fill:#fff"></rect><rect x="443.76" y="228.08" width="3.48" height="4.69" style="fill:#fff"></rect><rect x="449.78" y="228.08" width="3.48" height="4.69" style="fill:#fff"></rect><rect x="443.76" y="235.14" width="3.48" height="4.69" style="fill:#fff"></rect><rect x="449.78" y="235.14" width="3.48" height="4.69" style="fill:#fff"></rect><rect x="443.76" y="242.37" width="3.48" height="4.69" style="fill:#fff"></rect><rect x="449.78" y="242.37" width="3.48" height="4.69" style="fill:#fff"></rect><rect x="443.76" y="249.6" width="3.48" height="4.69" style="fill:#fff"></rect><rect x="449.78" y="249.6" width="3.48" height="4.69" style="fill:#fff"></rect><rect x="443.76" y="256.83" width="3.48" height="4.69" style="fill:#fff"></rect><rect x="449.78" y="256.83" width="3.48" height="4.69" style="fill:#fff"></rect><rect x="443.76" y="264.06" width="3.48" height="4.69" style="fill:#fff"></rect><rect x="449.78" y="264.06" width="3.48" height="4.69" style="fill:#fff"></rect><rect x="443.76" y="271.37" width="3.48" height="4.69" style="fill:#fff"></rect><rect x="449.78" y="271.37" width="3.48" height="4.69" style="fill:#fff"></rect><rect x="443.76" y="278.68" width="3.48" height="4.69" style="fill:#fff"></rect><rect x="449.78" y="278.68" width="3.48" height="4.69" style="fill:#fff"></rect><rect x="443.76" y="285.99" width="3.48" height="4.69" style="fill:#fff"></rect><rect x="449.78" y="285.99" width="3.48" height="4.69" style="fill:#fff"></rect><rect x="443.76" y="293.3" width="3.48" height="4.69" style="fill:#fff"></rect><rect x="449.78" y="293.3" width="3.48" height="4.69" style="fill:#fff"></rect><rect x="371.74" y="213.32" width="3.48" height="3.98" style="fill:#fff"></rect><rect x="377.77" y="213.32" width="3.48" height="3.98" style="fill:#fff"></rect><rect x="371.74" y="207.18" width="3.48" height="3.98" style="fill:#fff"></rect><rect x="377.77" y="207.18" width="3.48" height="3.98" style="fill:#fff"></rect><rect x="371.74" y="201.04" width="3.48" height="3.98" style="fill:#fff"></rect><rect x="377.77" y="201.04" width="3.48" height="3.98" style="fill:#fff"></rect><rect x="371.74" y="219.31" width="3.48" height="3.98" style="fill:#fff"></rect><rect x="377.77" y="219.31" width="3.48" height="3.98" style="fill:#fff"></rect><rect x="371.74" y="225.3" width="3.48" height="3.98" style="fill:#fff"></rect><rect x="377.77" y="225.3" width="3.48" height="3.98" style="fill:#fff"></rect><rect x="371.74" y="231.29" width="3.48" height="3.98" style="fill:#fff"></rect><rect x="377.77" y="231.29" width="3.48" height="3.98" style="fill:#fff"></rect><rect x="371.74" y="237.43" width="3.48" height="3.98" style="fill:#fff"></rect><rect x="377.77" y="237.43" width="3.48" height="3.98" style="fill:#fff"></rect><rect x="371.74" y="243.57" width="3.48" height="3.98" style="fill:#fff"></rect><rect x="377.77" y="243.57" width="3.48" height="3.98" style="fill:#fff"></rect><rect x="371.74" y="249.71" width="3.48" height="3.98" style="fill:#fff"></rect><rect x="377.77" y="249.71" width="3.48" height="3.98" style="fill:#fff"></rect><rect x="371.74" y="255.84" width="3.48" height="3.98" style="fill:#fff"></rect><rect x="377.77" y="255.84" width="3.48" height="3.98" style="fill:#fff"></rect><rect x="371.74" y="262.05" width="3.48" height="3.98" style="fill:#fff"></rect><rect x="377.77" y="262.05" width="3.48" height="3.98" style="fill:#fff"></rect><rect x="371.74" y="268.25" width="3.48" height="3.98" style="fill:#fff"></rect><rect x="377.77" y="268.25" width="3.48" height="3.98" style="fill:#fff"></rect><rect x="371.74" y="274.45" width="3.48" height="3.98" style="fill:#fff"></rect><rect x="377.77" y="274.45" width="3.48" height="3.98" style="fill:#fff"></rect><rect x="371.74" y="280.66" width="3.48" height="3.98" style="fill:#fff"></rect><rect x="377.77" y="280.66" width="3.48" height="3.98" style="fill:#fff"></rect><polygon points="217.35 329.18 45.77 329.18 45.77 223.12 66.32 223.12 66.32 248.07 71.61 248.07 71.61 233.95 97.74 233.95 97.74 256.32 101.2 256.32 101.2 203.81 123.91 203.81 123.91 218.22 135.56 218.22 135.56 236.16 139.08 236.16 139.08 224.88 159.73 224.88 159.73 258.53 165.77 258.53 165.77 231.18 184.65 231.18 184.65 210.39 197.49 210.39 212.34 210.46 212.34 251.05 217.34 251.05 217.35 329.18" style="fill:#ebebeb"></polygon><rect x="48.29" y="226.26" width="3.48" height="4.77" style="fill:#fff"></rect><rect x="54.31" y="226.26" width="3.48" height="4.77" style="fill:#fff"></rect><rect x="60.34" y="226.26" width="3.48" height="4.77" style="fill:#fff"></rect><rect x="48.29" y="233.43" width="3.48" height="4.77" style="fill:#fff"></rect><rect x="54.31" y="233.43" width="3.48" height="4.77" style="fill:#fff"></rect><rect x="60.34" y="233.43" width="3.48" height="4.77" style="fill:#fff"></rect><rect x="48.29" y="240.61" width="3.48" height="4.77" style="fill:#fff"></rect><rect x="54.31" y="240.61" width="3.48" height="4.77" style="fill:#fff"></rect><rect x="60.34" y="240.61" width="3.48" height="4.77" style="fill:#fff"></rect><rect x="48.29" y="247.79" width="3.48" height="4.77" style="fill:#fff"></rect><rect x="54.31" y="247.79" width="3.48" height="4.77" style="fill:#fff"></rect><rect x="60.34" y="247.79" width="3.48" height="4.77" style="fill:#fff"></rect><rect x="168.67" y="234.58" width="3.48" height="3.98" style="fill:#fff"></rect><rect x="174.69" y="234.58" width="3.48" height="3.98" style="fill:#fff"></rect><rect x="180.72" y="234.58" width="3.48" height="3.98" style="fill:#fff"></rect><rect x="168.67" y="240.57" width="3.48" height="3.98" style="fill:#fff"></rect><rect x="174.69" y="240.57" width="3.48" height="3.98" style="fill:#fff"></rect><rect x="180.72" y="240.57" width="3.48" height="3.98" style="fill:#fff"></rect><rect x="168.67" y="246.56" width="3.48" height="3.98" style="fill:#fff"></rect><rect x="174.69" y="246.56" width="3.48" height="3.98" style="fill:#fff"></rect><rect x="180.72" y="246.56" width="3.48" height="3.98" style="fill:#fff"></rect><rect x="168.67" y="252.55" width="3.48" height="3.98" style="fill:#fff"></rect><rect x="174.69" y="252.55" width="3.48" height="3.98" style="fill:#fff"></rect><rect x="180.72" y="252.55" width="3.48" height="3.98" style="fill:#fff"></rect><rect x="168.67" y="258.69" width="3.48" height="3.98" style="fill:#fff"></rect><rect x="174.69" y="258.69" width="3.48" height="3.98" style="fill:#fff"></rect><rect x="180.72" y="258.69" width="3.48" height="3.98" style="fill:#fff"></rect><rect x="168.67" y="264.83" width="3.48" height="3.98" style="fill:#fff"></rect><rect x="174.69" y="264.83" width="3.48" height="3.98" style="fill:#fff"></rect><rect x="180.72" y="264.83" width="3.48" height="3.98" style="fill:#fff"></rect><rect x="168.67" y="270.97" width="3.48" height="3.98" style="fill:#fff"></rect><rect x="174.69" y="270.97" width="3.48" height="3.98" style="fill:#fff"></rect><rect x="180.72" y="270.97" width="3.48" height="3.98" style="fill:#fff"></rect><rect x="168.67" y="277.1" width="3.48" height="3.98" style="fill:#fff"></rect><rect x="174.69" y="277.1" width="3.48" height="3.98" style="fill:#fff"></rect><rect x="180.72" y="277.1" width="3.48" height="3.98" style="fill:#fff"></rect><rect x="74.58" y="237.01" width="20.02" height="2.98" style="fill:#fff"></rect><rect x="74.58" y="242.8" width="20.02" height="2.98" style="fill:#fff"></rect><rect x="74.58" y="248.59" width="20.02" height="2.98" style="fill:#fff"></rect><rect x="74.58" y="254.38" width="20.02" height="2.98" style="fill:#fff"></rect><rect x="74.58" y="260.17" width="20.02" height="2.98" style="fill:#fff"></rect><rect x="74.58" y="265.96" width="20.02" height="2.98" style="fill:#fff"></rect><rect x="74.58" y="271.75" width="20.02" height="2.98" style="fill:#fff"></rect><rect x="74.58" y="277.54" width="20.02" height="2.98" style="fill:#fff"></rect><rect x="145.12" y="227.58" width="6.18" height="2.88" style="fill:#fff"></rect><rect x="145.12" y="233.17" width="6.18" height="2.88" style="fill:#fff"></rect><rect x="145.12" y="238.76" width="6.18" height="2.88" style="fill:#fff"></rect><rect x="145.12" y="244.36" width="6.18" height="2.88" style="fill:#fff"></rect><rect x="145.12" y="249.95" width="6.18" height="2.88" style="fill:#fff"></rect><rect x="145.12" y="255.54" width="6.18" height="2.88" style="fill:#fff"></rect><rect x="145.12" y="261.13" width="6.18" height="2.88" style="fill:#fff"></rect><rect x="145.12" y="266.72" width="6.18" height="2.88" style="fill:#fff"></rect><rect x="153.53" y="227.58" width="6.18" height="2.88" style="fill:#fff"></rect><rect x="153.53" y="233.17" width="6.18" height="2.88" style="fill:#fff"></rect><rect x="153.53" y="238.76" width="6.18" height="2.88" style="fill:#fff"></rect><rect x="153.53" y="244.36" width="6.18" height="2.88" style="fill:#fff"></rect><rect x="153.53" y="249.95" width="6.18" height="2.88" style="fill:#fff"></rect><rect x="153.53" y="255.54" width="6.18" height="2.88" style="fill:#fff"></rect><rect x="153.53" y="261.13" width="6.18" height="2.88" style="fill:#fff"></rect><rect x="153.53" y="266.72" width="6.18" height="2.88" style="fill:#fff"></rect><rect x="104.64" y="206.84" width="6.44" height="4.54" style="fill:#fff"></rect><rect x="114.24" y="206.84" width="6.44" height="4.54" style="fill:#fff"></rect><rect x="104.64" y="213.51" width="6.44" height="4.54" style="fill:#fff"></rect><rect x="114.24" y="213.51" width="6.44" height="4.54" style="fill:#fff"></rect><rect x="104.64" y="220.19" width="6.44" height="4.54" style="fill:#fff"></rect><rect x="114.24" y="220.19" width="6.44" height="4.54" style="fill:#fff"></rect><rect x="104.64" y="226.87" width="6.44" height="4.54" style="fill:#fff"></rect><rect x="114.24" y="226.87" width="6.44" height="4.54" style="fill:#fff"></rect><rect x="104.64" y="233.54" width="6.44" height="4.54" style="fill:#fff"></rect><rect x="114.24" y="233.54" width="6.44" height="4.54" style="fill:#fff"></rect><rect x="104.64" y="240.22" width="6.44" height="4.54" style="fill:#fff"></rect><rect x="114.24" y="240.22" width="6.44" height="4.54" style="fill:#fff"></rect><rect x="104.64" y="246.89" width="6.44" height="4.54" style="fill:#fff"></rect><rect x="114.24" y="246.89" width="6.44" height="4.54" style="fill:#fff"></rect><rect x="104.64" y="253.57" width="6.44" height="4.54" style="fill:#fff"></rect><rect x="114.24" y="253.57" width="6.44" height="4.54" style="fill:#fff"></rect><rect x="126.15" y="220.19" width="6.44" height="4.54" style="fill:#fff"></rect><rect x="126.15" y="226.87" width="6.44" height="4.54" style="fill:#fff"></rect><rect x="126.15" y="233.54" width="6.44" height="4.54" style="fill:#fff"></rect><rect x="126.15" y="240.22" width="6.44" height="4.54" style="fill:#fff"></rect><rect x="126.15" y="246.89" width="6.44" height="4.54" style="fill:#fff"></rect><rect x="126.15" y="253.57" width="6.44" height="4.54" style="fill:#fff"></rect><rect x="104.64" y="260.17" width="6.44" height="4.54" style="fill:#fff"></rect><rect x="114.24" y="260.17" width="6.44" height="4.54" style="fill:#fff"></rect><rect x="126.15" y="260.17" width="6.44" height="4.54" style="fill:#fff"></rect><rect x="104.64" y="266.76" width="6.44" height="4.54" style="fill:#fff"></rect><rect x="114.24" y="266.76" width="6.44" height="4.54" style="fill:#fff"></rect><rect x="126.15" y="266.76" width="6.44" height="4.54" style="fill:#fff"></rect><rect x="104.64" y="273.36" width="6.44" height="4.54" style="fill:#fff"></rect><rect x="114.24" y="273.36" width="6.44" height="4.54" style="fill:#fff"></rect><rect x="126.15" y="273.36" width="6.44" height="4.54" style="fill:#fff"></rect><rect x="104.64" y="279.96" width="6.44" height="4.54" style="fill:#fff"></rect><rect x="114.24" y="279.96" width="6.44" height="4.54" style="fill:#fff"></rect><rect x="126.15" y="279.96" width="6.44" height="4.54" style="fill:#fff"></rect><rect x="104.64" y="286.55" width="6.44" height="4.54" style="fill:#fff"></rect><rect x="114.24" y="286.55" width="6.44" height="4.54" style="fill:#fff"></rect><rect x="126.15" y="286.55" width="6.44" height="4.54" style="fill:#fff"></rect><rect x="187.27" y="213.32" width="3.48" height="3.98" style="fill:#fff"></rect><rect x="193.3" y="213.32" width="3.48" height="3.98" style="fill:#fff"></rect><rect x="187.27" y="219.31" width="3.48" height="3.98" style="fill:#fff"></rect><rect x="193.3" y="219.31" width="3.48" height="3.98" style="fill:#fff"></rect><rect x="187.27" y="225.3" width="3.48" height="3.98" style="fill:#fff"></rect><rect x="193.3" y="225.3" width="3.48" height="3.98" style="fill:#fff"></rect><rect x="187.27" y="231.29" width="3.48" height="3.98" style="fill:#fff"></rect><rect x="193.3" y="231.29" width="3.48" height="3.98" style="fill:#fff"></rect><rect x="187.27" y="237.43" width="3.48" height="3.98" style="fill:#fff"></rect><rect x="193.3" y="237.43" width="3.48" height="3.98" style="fill:#fff"></rect><rect x="187.27" y="243.57" width="3.48" height="3.98" style="fill:#fff"></rect><rect x="193.3" y="243.57" width="3.48" height="3.98" style="fill:#fff"></rect><rect x="187.27" y="249.71" width="3.48" height="3.98" style="fill:#fff"></rect><rect x="193.3" y="249.71" width="3.48" height="3.98" style="fill:#fff"></rect><rect x="187.27" y="255.84" width="3.48" height="3.98" style="fill:#fff"></rect><rect x="193.3" y="255.84" width="3.48" height="3.98" style="fill:#fff"></rect><rect x="187.27" y="262.05" width="3.48" height="3.98" style="fill:#fff"></rect><rect x="193.3" y="262.05" width="3.48" height="3.98" style="fill:#fff"></rect><rect x="187.27" y="268.25" width="3.48" height="3.98" style="fill:#fff"></rect><rect x="193.3" y="268.25" width="3.48" height="3.98" style="fill:#fff"></rect><rect x="187.27" y="274.45" width="3.48" height="3.98" style="fill:#fff"></rect><rect x="193.3" y="274.45" width="3.48" height="3.98" style="fill:#fff"></rect><rect x="187.27" y="280.66" width="3.48" height="3.98" style="fill:#fff"></rect><rect x="193.3" y="280.66" width="3.48" height="3.98" style="fill:#fff"></rect><rect x="200.16" y="213.32" width="3.48" height="3.98" style="fill:#fff"></rect><rect x="206.19" y="213.32" width="3.48" height="3.98" style="fill:#fff"></rect><rect x="200.16" y="219.31" width="3.48" height="3.98" style="fill:#fff"></rect><rect x="206.19" y="219.31" width="3.48" height="3.98" style="fill:#fff"></rect><rect x="200.16" y="225.3" width="3.48" height="3.98" style="fill:#fff"></rect><rect x="206.19" y="225.3" width="3.48" height="3.98" style="fill:#fff"></rect><rect x="200.16" y="231.29" width="3.48" height="3.98" style="fill:#fff"></rect><rect x="206.19" y="231.29" width="3.48" height="3.98" style="fill:#fff"></rect><rect x="200.16" y="237.43" width="3.48" height="3.98" style="fill:#fff"></rect><rect x="206.19" y="237.43" width="3.48" height="3.98" style="fill:#fff"></rect><rect x="200.16" y="243.57" width="3.48" height="3.98" style="fill:#fff"></rect><rect x="206.19" y="243.57" width="3.48" height="3.98" style="fill:#fff"></rect><rect x="200.16" y="249.71" width="3.48" height="3.98" style="fill:#fff"></rect><rect x="206.19" y="249.71" width="3.48" height="3.98" style="fill:#fff"></rect><rect x="200.16" y="255.84" width="3.48" height="3.98" style="fill:#fff"></rect><rect x="206.19" y="255.84" width="3.48" height="3.98" style="fill:#fff"></rect><rect x="200.16" y="262.05" width="3.48" height="3.98" style="fill:#fff"></rect><rect x="206.19" y="262.05" width="3.48" height="3.98" style="fill:#fff"></rect><rect x="200.16" y="268.25" width="3.48" height="3.98" style="fill:#fff"></rect><rect x="206.19" y="268.25" width="3.48" height="3.98" style="fill:#fff"></rect><rect x="200.16" y="274.45" width="3.48" height="3.98" style="fill:#fff"></rect><rect x="206.19" y="274.45" width="3.48" height="3.98" style="fill:#fff"></rect><rect x="200.16" y="280.66" width="3.48" height="3.98" style="fill:#fff"></rect><rect x="206.19" y="280.66" width="3.48" height="3.98" style="fill:#fff"></rect><path d="M390.29,174.73h76.65s-3.81-5-8-5.58c0,0-8.17-24.33-21.85-24.5-12.72-.16-17.82,15-17.82,15s-5.89-6.78-11.52-3.68-8.82,12-8.82,12S392.59,171.32,390.29,174.73Z" style="fill:#ebebeb"></path><path d="M130,144.17H33.06s0-6.19,13.35-7.41c0,0,12.19-27.06,30.81-23.43,11.59,2.27,17.51,18.18,17.51,18.18s8.76-12.52,15.77-10.1,11.17,15.76,11.17,15.76S128.89,140.67,130,144.17Z" style="fill:#ebebeb"></path><path d="M417.78,105.22H320.85s0-6.19,13.36-7.41c0,0,12.19-27.06,30.8-23.43,11.59,2.27,17.52,18.18,17.52,18.18S391.29,80,398.3,82.46s11.16,15.76,11.16,15.76S416.69,101.72,417.78,105.22Z" style="fill:#ebebeb"></path><path d="M274.45,74.05H208.54s6.22-5.79,9-5.79,10.84-19.44,21.14-18.61S254.44,65,254.44,65,267,61,274.45,74.05Z" style="fill:#ebebeb"></path><path d="M211.08,197.56H154.71s2.81-3.64,5.9-4.1c0,0,6-17.89,16.06-18,9.36-.12,13.11,11,13.11,11s4.33-5,8.47-2.7,6.48,8.81,6.48,8.81S209.39,195.06,211.08,197.56Z" style="fill:#ebebeb"></path><path d="M44.15,328.9s78.24-42.41,135.39-42.41c55.94,0,131.81,21.43,152.43,26.23,54.16,12.6,123.88,16.18,123.88,16.18Z" style="fill:#dbdbdb"></path><path d="M455.85,328.9S413.2,300.47,365,300.47c-33.63,0-81.91,11.45-127.37,17.89-17.31,2.45-107.42,10.54-107.42,10.54Z" style="fill:#c7c7c7"></path></g><g id="freepik--Shadow--inject-7"><ellipse cx="250" cy="447.85" rx="205.51" ry="17.42" style="fill:#ebebeb"></ellipse></g><g id="freepik--Pictures--inject-7"><rect x="56.77" y="76.15" width="123.89" height="97.41" transform="translate(253.97 231.56) rotate(171.83)" style="fill:#fff"></rect><path d="M64.32,181.87l122.6-17.79-.15.2L172.85,67.87l.28.21L50.49,85.6l.14-.17Zm0,0-14-96.4,0-.15.16,0L173.06,67.59l.25,0,0,.25,13.78,96.43,0,.17-.18,0Z" style="fill:#263238"></path><rect x="62.38" y="81.64" width="112.65" height="86.43" transform="translate(253.97 231.56) rotate(171.83)" style="fill:#37474F"></rect><path d="M70.6,107.2a10.23,10.23,0,1,0,6.81-9.09A10.24,10.24,0,0,0,70.6,107.2Z" style="fill:#fff;opacity:0.6000000000000001"></path><polygon points="103.24 151.92 177.96 141.19 133.99 100.51 103.24 151.92" style="fill:#37474F"></polygon><polygon points="103.24 151.92 177.96 141.19 133.99 100.51 103.24 151.92" style="opacity:0.2"></polygon><polygon points="66.46 157.25 132.72 147.73 95.28 122.5 66.46 157.25" style="fill:#37474F"></polygon><polygon points="66.46 157.25 132.72 147.73 95.28 122.5 66.46 157.25" style="opacity:0.1"></polygon><rect x="67.21" y="149.1" width="112.65" height="18.62" transform="translate(-21.27 19.17) rotate(-8.17)" style="fill:#37474F"></rect><rect x="67.21" y="149.1" width="112.65" height="18.62" transform="translate(-21.27 19.17) rotate(-8.17)" style="opacity:0.1"></rect><rect x="348.17" y="96.01" width="96.28" height="75.7" transform="translate(768.45 324.92) rotate(-171.49)" style="fill:#fff"></rect><path d="M343.1,164.17l95.25,14.08-.2.15,11.13-74.88.21.28-95.2-14.35.17-.13Zm0,0,11-74.89,0-.16.15,0,95.24,14.16.24,0,0,.25L438.5,178.45l0,.17-.17,0Z" style="fill:#263238"></path><rect x="352.54" y="100.28" width="87.55" height="67.17" transform="translate(768.45 324.92) rotate(-171.49)" style="fill:#455a64"></rect><path d="M364.44,110a8,8,0,1,0,7.1-5.25A8,8,0,0,0,364.44,110Z" style="fill:#37474f"></path><polygon points="378.76 150.56 436.78 159.25 413.12 119.15 378.76 150.56" style="fill:#263238"></polygon><polygon points="350.19 146.32 401.64 154.02 379.4 126.89 350.19 146.32" style="fill:#37474f"></polygon><rect x="348.64" y="152.68" width="87.55" height="14.47" transform="translate(28 -56.33) rotate(8.51)" style="fill:#37474f"></rect><rect x="171.45" y="33.95" width="111.85" height="87.94" transform="translate(453.19 160.26) rotate(-178.88)" style="fill:#ebebeb"></rect><rect x="176.52" y="38.91" width="101.7" height="78.03" transform="matrix(-1, -0.02, 0.02, -1, 453.19, 160.26)" style="fill:#fff"></rect><path d="M214.33,81.56c0,.09,1.47,7.75,1.53,7.93s5.67.76,6,1.05.67,1,.14,1-4-.79-4.09-.78,3.14,1.28,3.1,1.63a.78.78,0,0,1-.9.52c-.38-.06-4-2.14-4.38-2.23s-3.8,1-4.24.89-.54-.56.1-1,3-.71,3.1-1S213,81.57,213,81.57Z" style="fill:#c7c7c7"></path><path d="M219.94,79.18c0,.09,1.47,7.75,1.53,7.92s5.67.77,6,1.06.68,1,.15,1-4-.79-4.1-.78,3.15,1.28,3.11,1.62a.8.8,0,0,1-.91.53c-.37-.07-4-2.14-4.38-2.23s-3.8,1-4.24.89-.54-.57.11-1,3-.71,3.09-1-1.61-8.1-1.61-8.1Z" style="fill:#c7c7c7"></path><path d="M218.63,79.73c-1.07,1.09-3,3.47-3.7,3.61a2.39,2.39,0,0,1-1.37,0c-.36-.11-1.59-2.53-2.64-3.49S219.8,78.53,218.63,79.73Z" style="fill:#dbdbdb"></path><path d="M239.3,77.4c-.23,2.69-5.66,6.22-11.45,5.47s-10-9.43-10.83-12.59-1.27-15.89-1.27-15.89l2.51,1.7,4.16,10.85-3.18-10,1.9,1.21,5.06,9.51-3.88-8.93,2,.94S239.68,72.93,239.3,77.4Z" style="fill:#a6a6a6"></path><path d="M225.17,79.24c-1.17,1-3.3,3.17-4,3.24a2.47,2.47,0,0,1-1.37-.16c-.34-.14-1.34-2.67-2.29-3.73S226.45,78.16,225.17,79.24Z" style="fill:#a6a6a6"></path><path d="M237.1,77.63c-.14.1-9,9.85-16.4,7.44-11.18-3.62-18.26-13.53-18.26-13.53l-5.11-5-16.1-5.82,2.26-1.61,13.21,4.35L184.93,58.1l2.24-1.55,8.73,4.06-7.31-4.49,1.3-.42,13.19,5.67a123.14,123.14,0,0,1,29.33,1.08c2,.35,7.37-3.21,11.69-3.63s8,6.07,5.6,9C247.4,70.56,237.16,77.59,237.1,77.63Z" style="fill:#dbdbdb"></path><path d="M244.31,66.81c-.84-1.12-2.76.45-2,1.48S245,67.74,244.31,66.81Z" style="fill:#a6a6a6"></path><path d="M245.36,69.47a2.78,2.78,0,0,1,2.08,1.11c.56,1-.66,2.29-.66,2.29a10.58,10.58,0,0,0-1.82-2C244.1,70.18,245.36,69.47,245.36,69.47Z" style="fill:#a6a6a6"></path><path d="M243.93,71.25a3.09,3.09,0,0,0,.5,1.8,5.67,5.67,0,0,0,1.69,1.21Z" style="fill:#c7c7c7"></path><path d="M245,70.74a9.49,9.49,0,0,1,1.46,1.64,3.71,3.71,0,0,1,.38,3.11c-.13,0-3.08-4.12-3.08-4.12Z" style="fill:#c7c7c7"></path><path d="M244.85,69.17a1.44,1.44,0,1,1-1.66.67A1.47,1.47,0,0,1,244.85,69.17Z" style="fill:#a6a6a6"></path><path d="M237.22,76.7c-.45.08-1.43.76-1.49-.16a3.42,3.42,0,0,1,.36-1.3s0,0,0,0h0s0-.06,0-.06a.08.08,0,0,0-.07,0c-.66.14-1.85.7-2.25-.12s.5-1.65,1-2.2h0c.08,0,.1-.15,0-.17a5.09,5.09,0,0,1-1.58-.39c-1.07-.66.08-1.27.64-1.65.08,0,0-.17-.06-.13-.64.24-1.68.68-1.25,1.56a2.18,2.18,0,0,0,1.93.83c-.67.53-1.52,1.62-1,2.42s1.71.51,2.43.15c-.3.47-.59,1.15-.26,1.61s1.31.18,1.71-.19A.07.07,0,0,0,237.22,76.7Z" style="fill:#a6a6a6"></path><path d="M232.89,79.6c-.42.13-1,.56-1.43.23s-.1-.92.07-1.35l.08-.06c.08-.08,0-.25-.11-.22-.61.19-1.67.83-2.21.15s.65-1.79,1.07-2.21a.1.1,0,0,0,0-.09c0-.06,0-.15-.09-.17-.67-.12-3.12-.19-2.47-1.47.37-.73,1.59-.93,2.26-1.26h0c.09,0,.15-.13.06-.18a5,5,0,0,1-1.57-.94c-.76-.91.72-1.36,1.36-1.53a.07.07,0,0,0,0-.13c-.72.09-2,.28-1.9,1.29.07.64.78,1.16,1.46,1.38-.94.24-2.15.86-2.11,1.79.06,1.08,1.69,1.34,2.66,1.3-.68.5-1.53,1.54-1.08,2.32s1.55.62,2.28.24c-.23.45-.35,1,0,1.36s1.37.08,1.74-.28C233,79.71,233,79.57,232.89,79.6Z" style="fill:#a6a6a6"></path><path d="M231.32,64.3c.51,2.66-3.77,7.52-9.54,8.36s-12.22-6.36-13.84-9.19-5.51-15-5.51-15l2.88,1,6.93,9.32L206.48,50l2.16.65,7.44,7.79-6.15-7.55,2.19.36S230.48,59.9,231.32,64.3Z" style="fill:#a6a6a6"></path><path d="M213.15,89.09c-.63,0-1.24.08-1.86.16,0,0,0,0,0,0l-.37,0h-.08l-.71.13-.1,0c-.35.08-.71.16-1.05.26l-.38.1c-.57.17-1.12.34-1.67.56s-1.3.5-1.93.79c-1,.44-1.91.93-2.82,1.45a45.94,45.94,0,0,0-9.3,7A65.83,65.83,0,0,0,180.41,116l-1.26,0a64.38,64.38,0,0,1,13.11-17,46,46,0,0,1,9.62-6.82,32.16,32.16,0,0,1,5-2.1,20.07,20.07,0,0,1,2.12-.56c.41-.1.81-.17,1.22-.23h.09l.21,0,.27,0,.51,0h.17s0,0,.05,0h.08s0,0,0,0h.27a8.51,8.51,0,0,1,1,0Z" style="fill:#dbdbdb"></path><path d="M210.83,89.05a22.09,22.09,0,0,0-3.91.45,35.52,35.52,0,0,0-7.77,2.67,53.59,53.59,0,0,0-10.29,6.42,66.62,66.62,0,0,0-13,13.91l0-1.91a63.34,63.34,0,0,1,12.44-12.68,53.23,53.23,0,0,1,10.59-6.25,39.07,39.07,0,0,1,5.83-1.94c.72-.17,1.46-.32,2.19-.43a20.84,20.84,0,0,1,2.74-.27Z" style="fill:#dbdbdb"></path><path d="M212.21,89.07a5.11,5.11,0,0,0-.55.05s0,0,0,0h-.08s0,0-.05,0h-.17a.4.4,0,0,0-.15,0l-.35,0h0l-.6.12-.1,0-.93.27c-.2.08-.41.14-.61.21-.54.21-1.08.44-1.6.7l-.07,0a27.31,27.31,0,0,0-4.5,2.92,43.34,43.34,0,0,0-7.55,7.88,70.5,70.5,0,0,0-8.45,14.78l-1.2,0a68,68,0,0,1,9-15.29,42.74,42.74,0,0,1,7.89-7.78A28.9,28.9,0,0,1,205,91.19a18.08,18.08,0,0,1,1.87-.93l.07,0a13.67,13.67,0,0,1,2.12-.74,10.11,10.11,0,0,1,1.3-.29h.09a2.57,2.57,0,0,1,.4-.06l.47,0,.41,0h.51Z" style="fill:#dbdbdb"></path><path d="M212,89.07h-.14a1,1,0,0,0-.34,0,.33.33,0,0,0-.17,0,.4.4,0,0,0-.15,0,2,2,0,0,0-.35.06h0q-.34.09-.69.21h0l-.11,0A10.75,10.75,0,0,0,207.29,91a3.6,3.6,0,0,0-.4.31,21.78,21.78,0,0,0-3.35,3.23,44.36,44.36,0,0,0-5.69,8.64,85.39,85.39,0,0,0-5.37,13.1l-1.12,0a77.4,77.4,0,0,1,5.73-13.5,44.14,44.14,0,0,1,6-8.59,22.93,22.93,0,0,1,3.77-3.26l.23-.16a11.17,11.17,0,0,1,1.83-1,1.2,1.2,0,0,1,.23-.11l.27-.11a6.45,6.45,0,0,1,.75-.22l.09,0a1.1,1.1,0,0,1,.26-.06l.27,0,.47-.08.41,0H212Z" style="fill:#dbdbdb"></path><path d="M212.21,89.07l-.28,0h0a4.15,4.15,0,0,0-.61.14s0,0,0,0l-.43.19h0a6.21,6.21,0,0,0-1.27.84l-.33.31a13.14,13.14,0,0,0-1,1.11,18.21,18.21,0,0,0-1.36,2c-.46.73-.86,1.49-1.26,2.24a67,67,0,0,0-3.81,9.18q-1.87,5.56-3.31,11.27l-1.08,0A120.33,120.33,0,0,1,201,104.81a66.46,66.46,0,0,1,4.14-9.14,30.3,30.3,0,0,1,1.77-2.73A13.58,13.58,0,0,1,208,91.53c.28-.32.58-.61.87-.9s.45-.38.69-.55c.08-.06.15-.13.24-.19s.05,0,.07,0a5.84,5.84,0,0,1,1-.5,0,0,0,0,1,0,0s0,0,.06,0a3.78,3.78,0,0,1,.7-.18h0s0,0,0,0a1,1,0,0,1,.18,0h.37Z" style="fill:#dbdbdb"></path><path d="M210.83,89.05a.8.8,0,0,0-.41.14.17.17,0,0,0-.08.06l-.05,0-.08.06-.09.1h0s0,0,0,0a1.16,1.16,0,0,0-.2.25c0,.06-.08.11-.12.18s-.16.27-.24.41-.15.3-.21.45a18.17,18.17,0,0,0-.86,2.22c-.29.89-.54,1.78-.75,2.68-.17.65-.32,1.29-.47,1.93-.72,3.11-1.3,6.25-1.82,9.39s-1,6.34-1.42,9.52l-1,0c.48-3.22,1-6.45,1.62-9.65s1.29-6.27,2.13-9.37c.17-.6.35-1.21.53-1.81.29-.93.6-1.86.95-2.77a16.58,16.58,0,0,1,1-2.2s0,0,0-.06a4.23,4.23,0,0,1,.33-.53,2.78,2.78,0,0,1,.29-.41l.17-.19.11-.12.09-.06.05,0,.08-.06A.89.89,0,0,1,210.83,89.05Z" style="fill:#dbdbdb"></path><path d="M210.82,116.62l-1,0c.08-2.94.16-5.89.26-8.83.14-4,.28-8,.47-12.07.08-2.08.19-4.15.31-6.24v-.24a0,0,0,0,1,0,0v.26c0,2.09.06,4.18.08,6.26q0,6,0,12.08C210.89,110.73,210.85,113.68,210.82,116.62Z" style="fill:#dbdbdb"></path><path d="M278.5,64.66l0,1.1c-.71-.21-1.41-.41-2.12-.57s-1.31-.31-2-.42c-.87-.16-1.73-.28-2.6-.36-.58-.06-1.15-.09-1.74-.11h-.12c-.42,0-.85,0-1.27,0h-.06l-.31,0c-.59,0-1.17.08-1.76.14s-1,.12-1.44.2a35.07,35.07,0,0,0-5,1.17c-.64.17-1.26.38-1.88.59a49.79,49.79,0,0,0-10.72,5.37v0l-.15.08-.77.57,0,0-1.1.79-.18.13a1.63,1.63,0,0,0-.22.17,27.76,27.76,0,0,0-2.54,2c-.76.68-1.58,1.29-2.29,2L238,79.85A25.89,25.89,0,0,0,236,82.12l-2,2.34c-1.24,1.62-2.43,3.31-3.65,5,1.13-1.73,2.21-3.47,3.4-5.15l1.9-2.43.58-.74a16.93,16.93,0,0,1,1.41-1.64l1.61-1.73.5-.54c.7-.75,1.52-1.4,2.27-2.1A28.08,28.08,0,0,1,244.41,73a4.29,4.29,0,0,0,.35-.28l.17-.11,1-.8,0,0,.8-.62c.22-.16.45-.31.68-.46a47.49,47.49,0,0,1,10.34-5.26,38,38,0,0,1,10.68-2.26h.05c.48,0,.95,0,1.43,0h.08c.16,0,.3,0,.46,0A32.33,32.33,0,0,1,278.5,64.66Z" style="fill:#dbdbdb"></path><path d="M278.48,65.7l0,1.17a23.29,23.29,0,0,0-3.18-1.44l-.64-.22a19,19,0,0,0-2.69-.69,14.19,14.19,0,0,0-2-.22h-.13c-.38,0-.75,0-1.14,0h-.06l-.34,0a20.61,20.61,0,0,0-2,.33c-.44.1-.87.21-1.29.34s-.76.22-1.13.35h0a32.9,32.9,0,0,0-3.51,1.52,35.32,35.32,0,0,0-8.11,6,52.8,52.8,0,0,0-6.55,7.83c-.92,1.43-1.86,2.87-2.76,4.33l-2.49,4.51L242.58,85c.83-1.5,1.7-3,2.56-4.48a53.49,53.49,0,0,1,6.4-8.16A33.8,33.8,0,0,1,259.78,66l.28-.13A26,26,0,0,1,264.63,64a18.67,18.67,0,0,1,3.88-.78h.05a11.22,11.22,0,0,1,1.3,0H270l.54,0a18.42,18.42,0,0,1,4.45,1A21.66,21.66,0,0,1,278.48,65.7Z" style="fill:#dbdbdb"></path><polygon points="247.53 89.76 247.54 89.76 247.5 89.84 247.53 89.76" style="fill:#dbdbdb"></polygon><path d="M278.46,66.62l0,1.32a.86.86,0,0,0-.14-.13,15.51,15.51,0,0,0-1.87-1.34,20,20,0,0,0-1.81-1,11.61,11.61,0,0,0-2.6-.9,6.94,6.94,0,0,0-1.47-.18h-.2l-.38,0h-.13a11.18,11.18,0,0,0-2.07.38,14.06,14.06,0,0,0-1.46.53,18.56,18.56,0,0,0-2.38,1.24,11.81,11.81,0,0,0-1.45,1,31.66,31.66,0,0,0-6.27,6.39,20.34,20.34,0,0,0-1.31,1.84l-1.27,1.88c-.74,1.32-1.55,2.6-2.24,4s-1.4,2.69-2,4.08l-1.81,4.09,1.53-4.22c.56-1.42,1.21-2.8,1.81-4.2s1.42-2.71,2.12-4.08l1.22-2c.41-.64.8-1.31,1.28-1.92l1.37-1.84c.49-.59,1-1.15,1.54-1.74a18.17,18.17,0,0,1,1.66-1.62,15.78,15.78,0,0,1,1.78-1.49,17.71,17.71,0,0,1,1.93-1.31h0c.42-.26.86-.49,1.29-.7.26-.13.51-.26.78-.38a12.21,12.21,0,0,1,3.87-1,2.05,2.05,0,0,1,.37,0h.4c.12,0,.23,0,.35,0l.21,0a11.59,11.59,0,0,1,4,1.16c.44.22.87.45,1.29.71A15,15,0,0,1,278.46,66.62Z" style="fill:#dbdbdb"></path><path d="M278.42,68.85l0,1.72a20.61,20.61,0,0,0-1.63-2.18A16.75,16.75,0,0,0,275.39,67l-.74-.66-.8-.57a8.63,8.63,0,0,0-1.54-.86l-.14-.06a5.21,5.21,0,0,0-1.63-.41h-.2a2.55,2.55,0,0,0-.38,0,.57.57,0,0,1-.13,0,6.85,6.85,0,0,0-1.24.32,5.81,5.81,0,0,0-.89.38l-.44.23a4.5,4.5,0,0,0-.41.25,15.82,15.82,0,0,0-3.05,2.56,35.74,35.74,0,0,0-4.66,6.63,70.51,70.51,0,0,0-3.46,7.42c-.49,1.29-1.06,2.54-1.49,3.85l-1.33,3.81c.67-2.64,1.4-5.27,2.29-7.85a69,69,0,0,1,3.22-7.64A32.8,32.8,0,0,1,263,67.44c.29-.3.57-.6.88-.88a13.13,13.13,0,0,1,2.31-1.87l0,0,.28-.19a6,6,0,0,1,.67-.35,5.55,5.55,0,0,1,1-.45,6.52,6.52,0,0,1,1.55-.39,2.05,2.05,0,0,1,.37,0h.35a5.9,5.9,0,0,1,2.12.51,10.22,10.22,0,0,1,1.81,1l.08.06.8.6.05,0,.78.72c.11.09.21.19.31.29.4.4.75.84,1.12,1.25S278.14,68.46,278.42,68.85Z" style="fill:#dbdbdb"></path><path d="M278.09,85.84,278,92.36,260.36,92s.07-.75.22-2c.63-5.34,2.68-19.84,6.68-24.67a5.37,5.37,0,0,1,.5-.55,3.88,3.88,0,0,1,.51-.43l0,0a2.73,2.73,0,0,1,3.5.07.83.83,0,0,1,.15.11s0,0,.06.06a2.06,2.06,0,0,1,.3.29C275.64,68.31,277.32,78.85,278.09,85.84Z" style="fill:#ebebeb"></path><path d="M277.9,95.48l-.44,22.44-44.53-.87c-1.24-.43-2.42-.87-3.53-1.32-5.79-2.36-10.14-8.18-13-13.17a63.54,63.54,0,0,1-3.16-6.49l-.12-.31c0-.07-.06-.13-.08-.19s-.14-.37-.2-.53,0-.12-.06-.16c-.15-.38-.23-.61-.25-.67Z" style="fill:#37474F"></path><path d="M277.9,95.48l-.44,22.44-44.53-.87c-1.24-.43-2.42-.87-3.53-1.32-5.79-2.36-10.14-8.18-13-13.17a63.54,63.54,0,0,1-3.16-6.49l-.12-.31c0-.07-.06-.13-.08-.19s-.14-.37-.2-.53,0-.12-.06-.16c-.15-.38-.23-.61-.25-.67Z" style="fill:#ebebeb"></path><path d="M277.9,95.47l-.16,8.29-61.31-1.2a63.54,63.54,0,0,1-3.16-6.49c0-.11-.08-.21-.11-.31l-.09-.19c-.07-.2-.14-.37-.2-.53s0-.12-.06-.16c-.15-.38-.23-.61-.25-.67h0Z" style="fill:#c7c7c7"></path><rect x="239.07" y="57.45" width="6.66" height="71.08" transform="translate(144.71 333.54) rotate(-88.88)" style="fill:#ebebeb"></rect><path d="M228.05,106.55a5.37,5.37,0,0,1,1,.15,20.83,20.83,0,0,1,2.08.66c1.38.5,2.75,1.09,4.11,1.69,2.71,1.21,5.36,2.54,8,3.85,3,1.47,5.93,3,8.88,4.53h.8q-4.64-2.67-9.36-5.17c-2.63-1.4-5.32-2.71-8-4-1.36-.62-2.73-1.22-4.14-1.75a22,22,0,0,0-2.17-.71,6.26,6.26,0,0,0-1.21-.19,1.46,1.46,0,0,0-.8.2,1,1,0,0,0-.35.92,4.9,4.9,0,0,0,1.23,2.16,15.55,15.55,0,0,0,1.66,1.59,25.63,25.63,0,0,0,3.76,2.55,44.15,44.15,0,0,0,8.32,3.42l2.57.79,2.15,0c-1.51-.48-3-1-4.5-1.5a47.23,47.23,0,0,1-8.13-3.47,23.91,23.91,0,0,1-3.61-2.5,13.84,13.84,0,0,1-1.55-1.51,4.24,4.24,0,0,1-1-1.67v-.1Z" style="fill:#c7c7c7"></path><path d="M259.68,107.26a1.23,1.23,0,0,1,.35-.05.82.82,0,0,1,.33.07,2.33,2.33,0,0,1,.68.53,8.11,8.11,0,0,1,1.1,1.66,36.75,36.75,0,0,1,1.65,3.79c.55,1.46,1,2.94,1.5,4.42h.4c-.34-1.56-.76-3.11-1.24-4.65a26.73,26.73,0,0,0-1.57-4,8.8,8.8,0,0,0-1.2-1.84,2.89,2.89,0,0,0-1-.77,1.89,1.89,0,0,0-.68-.17,2.34,2.34,0,0,0-.67.11,1.43,1.43,0,0,0-.9,1.13,4,4,0,0,0,0,1.21,10.5,10.5,0,0,0,.7,2.07,26.25,26.25,0,0,0,2,3.73c.68,1.06,1.4,2.09,2.18,3.1H264c-.74-1.14-1.47-2.29-2.14-3.46a39,39,0,0,1-1.88-3.7,9.81,9.81,0,0,1-.6-1.91,2.7,2.7,0,0,1,0-.89A.54.54,0,0,1,259.68,107.26Z" style="fill:#c7c7c7"></path><path d="M255,111.58a28,28,0,0,0-5.16-3.85,13.47,13.47,0,0,0-3-1.32,6.45,6.45,0,0,0-1.64-.33,3.37,3.37,0,0,0-1.79.1,1,1,0,0,0-.51.44,1,1,0,0,0-.1.71,2.85,2.85,0,0,0,.46.87,11,11,0,0,0,1.16,1.2,31.69,31.69,0,0,0,2.53,2q2.61,1.88,5.34,3.54c1.44.89,2.9,1.74,4.38,2.58h.94c-1.65-1-3.31-2.1-4.94-3.18s-3.53-2.34-5.22-3.61a30,30,0,0,1-2.44-2,8.11,8.11,0,0,1-1-1.1,1.41,1.41,0,0,1-.29-.53.45.45,0,0,1,0-.06l.09-.06a3,3,0,0,1,1.36-.05,6.24,6.24,0,0,1,1.47.27,14.19,14.19,0,0,1,2.84,1.21,32.37,32.37,0,0,1,5.1,3.66,61.23,61.23,0,0,1,4.61,4.36c.37.37.72.75,1.08,1.13h.45A57.6,57.6,0,0,0,255,111.58Z" style="fill:#c7c7c7"></path><path d="M271.29,110a7.19,7.19,0,0,0-.31-2,2.88,2.88,0,0,0-.59-1,1.75,1.75,0,0,0-1.16-.51,1.8,1.8,0,0,0-1.17.47,2.88,2.88,0,0,0-.62,1,7.19,7.19,0,0,0-.41,2,18.54,18.54,0,0,0,.19,3.88c.19,1.33.44,2.65.74,3.95h.43c-.2-1.33-.37-2.67-.48-4a23.4,23.4,0,0,1-.05-3.74,6.4,6.4,0,0,1,.38-1.75c.22-.54.56-.85,1-.84s.76.33,1,.89a6.88,6.88,0,0,1,.31,1.75,25.12,25.12,0,0,1-.21,3.75c-.16,1.33-.38,2.66-.64,4h.43a37.51,37.51,0,0,0,.9-3.91A17.9,17.9,0,0,0,271.29,110Z" style="fill:#c7c7c7"></path><path d="M276.75,107.53a9.3,9.3,0,0,0-1.26,1.8,24.14,24.14,0,0,0-1.73,3.9q-.81,2.26-1.43,4.59h.4c.52-1.47,1.08-2.93,1.67-4.36a36.63,36.63,0,0,1,1.8-3.73,8.87,8.87,0,0,1,1.17-1.61,2.35,2.35,0,0,1,.29-.26l0-1A2.78,2.78,0,0,0,276.75,107.53Zm-.44,7c-.71,1.14-1.49,2.26-2.27,3.37l.55,0c.82-1,1.58-2,2.3-3,.23-.31.44-.63.65-1l0-1.55C277.17,113.06,276.74,113.77,276.31,114.48Z" style="fill:#c7c7c7"></path><path d="M277.36,117.92h.1v-.12Z" style="fill:#c7c7c7"></path></g><g id="freepik--Floor--inject-7"><polygon points="40.02 329.06 92.51 328.82 145.01 328.73 250 328.56 354.99 328.73 407.49 328.82 459.98 329.06 407.49 329.31 354.99 329.4 250 329.56 145.01 329.4 92.51 329.31 40.02 329.06" style="fill:#263238"></polygon></g><g id="freepik--Plants--inject-7"><path d="M216.23,329.06h47.64s-.11-7.09-4.79-9a6.38,6.38,0,0,0-7.47,1.79s-1.91-13-10.64-13-12.9,11.25-12.9,11.25a6.68,6.68,0,0,0-6.8-2.76C216.42,318,216.23,329.06,216.23,329.06Z" style="fill:#37474f"></path><path d="M40.71,329.06s1.46-6.81,4.37-7.86,4.7,2,4.7,2,.68-6.51,4.82-8.46,7.24,2,7.24,2,3.17-8.26,8.84-8.26,8.53,12.09,8.53,12.09S82.56,317,86,319.05s3.43,10,3.43,10Z" style="fill:#37474f"></path><path d="M416.05,329.06H460s-1.44-6.19-4.36-6.63-4.27,2.44-4.27,2.44.14-8.64-5.3-10.11-10,6.16-10,6.16-3.41-4.35-8.06-4.08-5.83,7.47-5.83,7.47S417.92,321.82,416.05,329.06Z" style="fill:#455a64"></path><path d="M86.27,329.06h27s-.07-4-2.72-5.08a3.62,3.62,0,0,0-4.23,1s-1.08-7.39-6-7.39S93,324,93,324a3.79,3.79,0,0,0-3.85-1.57C86.38,322.77,86.27,329.06,86.27,329.06Z" style="fill:#455a64"></path><path d="M285.64,329.06h-27s.06-4,2.72-5.08a3.62,3.62,0,0,1,4.23,1s1.08-7.39,6-7.39,7.31,6.37,7.31,6.37a3.81,3.81,0,0,1,3.86-1.57C285.53,322.77,285.64,329.06,285.64,329.06Z" style="fill:#455a64"></path></g><g id="freepik--Pigeons--inject-7"><path d="M322.23,149.55c-2.19.45-4.55,5.26-3.37,9.93s8.71,7.33,11.39,7.67,13.16-.51,13.16-.51l-1.64-1.89-9.31-2.36L341,164l-1.18-1.44-8.3-3.23,7.71,2.31-1-1.56S325.86,148.81,322.23,149.55Z" style="fill:#a6a6a6"></path><path d="M338.37,170.11c0,.07-1.34,6.38-1.39,6.52s-4.7.54-5,.78-.57.79-.14.83,3.33-.59,3.4-.57-2.62,1-2.59,1.29a.65.65,0,0,0,.73.45c.32,0,3.32-1.71,3.66-1.78s3.13.87,3.49.81.46-.46-.07-.8-2.45-.63-2.54-.85,1.46-6.66,1.46-6.66Z" style="fill:#37474F"></path><path d="M333.77,168.05c0,.07-1.34,6.38-1.39,6.52s-4.7.54-4.95.78-.58.79-.14.84,3.33-.59,3.4-.58-2.62,1-2.59,1.29a.65.65,0,0,0,.73.45c.32,0,3.32-1.7,3.66-1.77s3.12.87,3.49.8.45-.46-.07-.8-2.45-.63-2.54-.85,1.46-6.66,1.46-6.66Z" style="fill:#37474F"></path><path d="M330.3,167.17c.86.93,2.41,2.92,3,3a1.9,1.9,0,0,0,1.13,0c.3-.08,1.36-2.06,2.24-2.84S329.35,166.17,330.3,167.17Z" style="fill:#a6a6a6"></path><path d="M334.84,168.52c.87.92,2.41,2.92,3,3a1.94,1.94,0,0,0,1.14,0c.3-.08,1.36-2.07,2.24-2.84S333.9,167.51,334.84,168.52Z" style="fill:#dbdbdb"></path><path d="M320.39,154c0,.14.83,11,6.91,13.19,9.13,3.32,18.78.46,18.78.46L352,167l13.45,4.38c0-.1-.49-1.67-.65-2.2l-10.83-3.88,10.4,2.48c0-.1-.66-2.15-.67-2.15l-7.75-1.79,7.05.79-.64-.93-11.48-3a101.3,101.3,0,0,0-19.67-14.2c-1.49-.79-3.17-5.84-5.78-8.31s-8.31-.12-8.21,3C317.26,144.15,320.37,153.94,320.39,154Z" style="fill:#dbdbdb"></path><path d="M321.19,143.27c1.12-.3,1.57,1.7.54,2S320.25,143.53,321.19,143.27Z" style="fill:#263238"></path><path d="M319.15,144.48a2.28,2.28,0,0,0-1.92-.34c-.88.39-.73,1.83-.73,1.83a8.69,8.69,0,0,1,2.22-.4C319.61,145.58,319.15,144.48,319.15,144.48Z" style="fill:#a6a6a6"></path><path d="M319.18,146.37a2.55,2.55,0,0,1-1.24.91,4.66,4.66,0,0,1-1.72-.06Z" style="fill:#37474F"></path><path d="M318.74,145.48a7.26,7.26,0,0,0-1.79.33,3.06,3.06,0,0,0-1.83,1.84c.08.06,4.1-1.13,4.1-1.13Z" style="fill:#37474F"></path><path d="M319.64,144.54a1.19,1.19,0,1,0,.74,1.28A1.21,1.21,0,0,0,319.64,144.54Z" style="fill:#a6a6a6"></path><path d="M320.79,153.32c.25.29.54,1.22,1,.66a2.84,2.84,0,0,0,.42-1s0,0,0,0h0s0,0,.05,0a.05.05,0,0,1,.05,0c.36.42.86,1.39,1.53,1.06s.52-1.33.5-1.92l0,0a.08.08,0,0,1,.09-.12,4,4,0,0,0,1.22.55c1,.12.6-.87.42-1.4a.06.06,0,0,1,.11-.05c.29.48.75,1.3,0,1.65a1.8,1.8,0,0,1-1.68-.44c.17.69.17,1.83-.56,2.1s-1.37-.54-1.66-1.14c0,.46-.19,1-.65,1.19s-.94-.55-1-1C320.67,153.32,320.75,153.28,320.79,153.32Z" style="fill:#a6a6a6"></path><path d="M322.13,157.42c.21.29.39.88.82.87s.53-.54.64-.91a.24.24,0,0,1,0-.08c0-.09.12-.17.18-.09.3.44.67,1.39,1.37,1.22s.48-1.5.42-2a.09.09,0,0,1,0-.07.11.11,0,0,1,.15-.07c.5.27,2.13,1.47,2.35.3.13-.66-.56-1.41-.83-2h0a.08.08,0,0,1,.06-.15,4.24,4.24,0,0,0,1.5.19c1-.21.22-1.25-.11-1.69-.05-.05,0-.12.08-.07.43.42,1.17,1.21.59,1.8a1.62,1.62,0,0,1-1.65.16c.48.64,1,1.66.46,2.24s-1.78,0-2.39-.5c.19.67.21,1.78-.48,2.06s-1.33-.38-1.61-1c-.08.41-.3.85-.71.87s-.93-.64-1-1.06C322,157.41,322.08,157.35,322.13,157.42Z" style="fill:#a6a6a6"></path><path d="M333.27,147.65c-2.19.45-4.56,5.25-3.38,9.93s8.72,7.33,11.39,7.66,13.17-.5,13.17-.5l-1.64-1.9-9.31-2.36,8.51,1.65-1.18-1.45-8.3-3.23,7.71,2.32-1-1.56S336.9,146.9,333.27,147.65Z" style="fill:#a6a6a6"></path><path d="M250.39,170c0,.07,1.35,6.38,1.4,6.52s4.7.55,5,.78.57.79.14.84-3.33-.59-3.4-.58,2.62,1,2.59,1.3a.66.66,0,0,1-.74.45c-.31-.05-3.32-1.71-3.66-1.78s-3.12.87-3.48.8-.46-.45.07-.79,2.45-.64,2.54-.85-1.47-6.67-1.47-6.67Z" style="fill:#37474F"></path><path d="M255,168c0,.08,1.34,6.38,1.39,6.53s4.7.54,4.95.77.57.79.14.84-3.33-.59-3.4-.58,2.62,1,2.59,1.3a.65.65,0,0,1-.73.45c-.32-.05-3.32-1.71-3.66-1.78s-3.13.87-3.49.81-.46-.46.07-.8,2.45-.63,2.54-.85-1.46-6.66-1.46-6.66Z" style="fill:#37474F"></path><path d="M253.92,168.45c-.86.92-2.41,2.91-3,3a2.08,2.08,0,0,1-1.13,0c-.3-.09-1.36-2.07-2.24-2.85S254.87,167.44,253.92,168.45Z" style="fill:#dbdbdb"></path><path d="M271,166.19c-.15,2.23-4.58,5.23-9.37,4.71s-8.46-7.63-9.16-10.24-1.31-13.11-1.31-13.11l2.11,1.37,3.61,8.9-2.79-8.21,1.59,1,4.34,7.78L256.64,151l1.67.75S271.21,162.49,271,166.19Z" style="fill:#a6a6a6"></path><path d="M259.32,167.94c-.95.83-2.68,2.67-3.28,2.74a2,2,0,0,1-1.13-.11c-.29-.11-1.15-2.19-2-3S260.36,167,259.32,167.94Z" style="fill:#a6a6a6"></path><path d="M269.16,166.41c-.12.09-7.25,8.29-13.44,6.42-9.3-2.81-15.31-10.89-15.31-10.89l-4.3-4-13.4-4.56,1.84-1.36,11,3.38-9.81-4.25,1.82-1.32,7.28,3.22-6.11-3.59,1.06-.37,11,4.48a101.5,101.5,0,0,1,24.25.41c1.67.26,6-2.77,9.61-3.18s6.73,4.89,4.77,7.34S269.2,166.38,269.16,166.41Z" style="fill:#dbdbdb"></path><path d="M274.94,157.35c-.71-.91-2.28.42-1.62,1.27S275.54,158.12,274.94,157.35Z" style="fill:#263238"></path><path d="M275.85,159.54a2.29,2.29,0,0,1,1.73.88c.48.84-.51,1.9-.51,1.9a8.53,8.53,0,0,0-1.53-1.65C274.81,160.15,275.85,159.54,275.85,159.54Z" style="fill:#a6a6a6"></path><path d="M274.69,161a2.55,2.55,0,0,0,.45,1.48,4.56,4.56,0,0,0,1.41,1Z" style="fill:#37474F"></path><path d="M275.58,160.59a7.75,7.75,0,0,1,1.24,1.34,3,3,0,0,1,.35,2.56c-.1,0-2.6-3.35-2.6-3.35Z" style="fill:#37474F"></path><path d="M275.42,159.3a1.19,1.19,0,1,1-1.36.58A1.19,1.19,0,0,1,275.42,159.3Z" style="fill:#a6a6a6"></path><path d="M269.24,165.64c-.37.08-1.17.65-1.23-.1a2.57,2.57,0,0,1,.27-1.08s0,0,0,0h0a0,0,0,0,0,0,0h-.06c-.54.12-1.52.61-1.86-.07s.38-1.37.75-1.83h0c.07,0,.09-.13,0-.15a3.91,3.91,0,0,1-1.31-.3c-.9-.52,0-1.05.5-1.37a.06.06,0,0,0-.05-.11c-.52.21-1.38.59-1,1.32a1.8,1.8,0,0,0,1.61.65c-.55.45-1.23,1.36-.81,2s1.42.39,2,.08c-.24.39-.48,1-.19,1.34s1.09.13,1.41-.19A.06.06,0,0,0,269.24,165.64Z" style="fill:#a6a6a6"></path><path d="M265.71,168.11c-.35.11-.85.48-1.19.21s-.09-.75.05-1.11l.06-.05a.11.11,0,0,0-.1-.18c-.5.16-1.37.71-1.82.15s.51-1.49.85-1.84a.1.1,0,0,0,0-.07.11.11,0,0,0-.08-.14c-.56-.09-2.58-.11-2.07-1.18.3-.6,1.3-.79,1.85-1.07h0a.08.08,0,0,0,.05-.15,4.31,4.31,0,0,1-1.32-.75c-.64-.75.57-1.14,1.1-1.29a.06.06,0,0,0,0-.11c-.59.08-1.66.27-1.55,1.09.07.53.66.95,1.22,1.12-.77.22-1.76.75-1.71,1.52s1.42,1.08,2.22,1c-.56.42-1.24,1.3-.85,1.94s1.29.48,1.88.16c-.18.37-.27.85.05,1.12s1.13,0,1.43-.26C265.83,168.2,265.79,168.09,265.71,168.11Z" style="fill:#a6a6a6"></path><path d="M264.16,155.49c.46,2.19-3,6.28-7.75,7.07s-10.2-5.06-11.58-7.38-4.8-12.27-4.8-12.27l2.39.75,5.89,7.59-4.91-7.15,1.8.51,6.27,6.31-5.2-6.14,1.82.27S263.39,151.86,264.16,155.49Z" style="fill:#a6a6a6"></path></g><g id="freepik--Character--inject-7"><path d="M220.91,375.46c-2.19.68-64.45-.71-66.78-2.27-.9-.58,6.6-55.8,6.6-55.8l40.06,1-7.82,35s23.59,11.19,26,13.18S223.1,374.78,220.91,375.46Z" style="fill:#ad6359"></path><path d="M220.91,375.45c-2.19.7-64.44-.69-66.78-2.26-.44-.28,1.12-13.57,2.82-27.1l37.52.55-1.5,6.69s23.59,11.19,26,13.17S223.1,374.78,220.91,375.45Z" style="fill:#ebebeb"></path><path d="M221.83,375.73c-2.23.71-65.67-.24-68.06-1.81-.92-.58,2-21.52,2-21.63l37.45.41,0,.7s24.11,11.22,26.56,13.23S224.05,375,221.83,375.73Z" style="fill:#37474F"></path><path d="M221.14,373.26c-10.69-.42-53.84-1.12-64.44-.72-.08,0-.08.06,0,.06,10.59.65,53.75,1,64.44.84C221.37,373.43,221.37,373.27,221.14,373.26Z" style="fill:#263238"></path><path d="M197.78,352.89c-4.2-.85-9.36-.28-12.62,2.67-.12.11,0,.29.18.25a58.81,58.81,0,0,1,12.41-2.39A.27.27,0,0,0,197.78,352.89Z" style="fill:#263238"></path><path d="M200.79,354.76c-4.2-.84-9.36-.28-12.62,2.67-.12.12,0,.3.18.26a58.81,58.81,0,0,1,12.41-2.39A.27.27,0,0,0,200.79,354.76Z" style="fill:#263238"></path><path d="M203.8,356.64c-4.2-.85-9.36-.28-12.62,2.67-.12.11,0,.29.18.25a58.81,58.81,0,0,1,12.41-2.39A.27.27,0,0,0,203.8,356.64Z" style="fill:#263238"></path><path d="M195.6,350l-42-.84s13.63-66.84,12.61-70.43c-.4-1.41-52.59-15.74-67.87-25.48-21.47-13.7-12-46.28-12-46.28h52.32s-2.56,12.85.11,15.67c3.24,3.42,66,20.25,71,33.89C216.27,274.7,195.6,350,195.6,350Z" style="fill:#455a64"></path><path d="M195.18,341.61c-6.46-.51-4.6-.47-11.06-.9-3.16-.2-23.93-1.54-26.92-1.09-.06,0-.07.15,0,.16,2.93.76,23.72,1.65,26.89,1.78,6.46.27,4.61.11,11.08.29C195.28,341.85,195.3,341.62,195.18,341.61Z" style="fill:#263238"></path><path d="M138.56,206.92l-13.69,57.71c-10.86-3.87-21.07-7.94-26.54-11.43-21.47-13.7-12-46.28-12-46.28Z" style="fill:#263238"></path><path d="M123.41,448.69c-2.18.72-64.46.34-66.82-1.18-.9-.56-1.38-9.64-1.63-20.62,0-.12,0-.23,0-.35-.06-2.26,6.81-40.88,6.81-40.88l40.77,1.11-7.4,39.56,0,.69s23.77,10.8,26.19,12.75S125.59,448,123.41,448.69Z" style="fill:#ad6359"></path><path d="M123.4,448.68c-2.17.73-64.44.35-66.81-1.17-.9-.57-1.37-9.64-1.63-20.63,0-.11,0-.23,0-.34,0-.59.82-3.7,1.12-8l40.35.44-1.29,7.33,0,.68s23.78,10.8,26.19,12.74S125.58,448,123.4,448.68Z" style="fill:#ebebeb"></path><path d="M124,448.81c-2.22.72-65.66.19-68.06-1.37-.92-.57-1.39-9.82-1.62-21v-.35L95.27,426l0,.69s24.2,11.07,26.66,13.06S126.24,448.09,124,448.81Z" style="fill:#37474F"></path><path d="M123.32,446.34c-10.69-.35-53.85-.77-64.44-.3-.09,0-.09.06,0,.06,10.59.59,53.75.65,64.44.42C123.55,446.51,123.55,446.35,123.32,446.34Z" style="fill:#263238"></path><path d="M99.82,426.12c-4.2-.82-9.35-.22-12.59,2.75-.13.12,0,.3.17.25a59.49,59.49,0,0,1,12.4-2.47A.27.27,0,0,0,99.82,426.12Z" style="fill:#263238"></path><path d="M102.84,428c-4.2-.82-9.35-.22-12.59,2.75-.13.12,0,.29.18.25a59.27,59.27,0,0,1,12.39-2.47A.27.27,0,0,0,102.84,428Z" style="fill:#263238"></path><path d="M105.87,429.83c-4.21-.82-9.36-.21-12.6,2.76-.12.11,0,.29.18.25a58.64,58.64,0,0,1,12.39-2.47A.27.27,0,0,0,105.87,429.83Z" style="fill:#263238"></path><path d="M138.62,206.92s-2.42,21.7-6.64,32.68c-.79,2.06-4.43,2-5.4,3,0,0-4.78,68.93-8.87,88.19-5.39,25.42-20.63,92.37-20.63,92.37l-45.55-1.53s22.76-95.34,23-97c1.35-9.41,6.09-76.72,5.57-78.35-5.33-16.71,6.2-39.38,6.2-39.38Z" style="fill:#455a64"></path><path d="M96.08,413.62c-6.72-.51-4.79-.47-11.51-.89-3.29-.2-24.91-1.5-28-1.05-.06,0-.07.15,0,.17,3,.75,24.69,1.61,28,1.73,6.73.26,4.8.1,11.54.27C96.19,413.85,96.2,413.62,96.08,413.62Z" style="fill:#263238"></path><path d="M132.68,239.36a86.23,86.23,0,0,0-13.63,6.11c-.17.09-.06.36.12.28,4.59-1.89,9.27-3.7,13.75-5.84A.3.3,0,0,0,132.68,239.36Z" style="fill:#263238"></path><path d="M134.59,208.09c0-.16-.29-.2-.29,0a151.42,151.42,0,0,1-1,15.23c-.24,2.35-2.32,15.3-6.38,14.3-.68-.17-1-.85-1.11-1.88a15.91,15.91,0,0,1,.6-4c.49-2.71.89-5.44,1.16-8.18a74.39,74.39,0,0,0,.06-15.36.13.13,0,0,0-.26,0,141.66,141.66,0,0,1-1.55,21.19c-.56,3.37-2.33,8.43,1.19,9s6-7.9,6.51-10.23A78.1,78.1,0,0,0,134.59,208.09Z" style="fill:#263238"></path><path d="M127,237.94a21.19,21.19,0,0,0-1,2.67,6.06,6.06,0,0,0-.42,2.21.16.16,0,0,0,.28.07,7.84,7.84,0,0,0,1-2.14c.32-.83.66-1.65,1-2.49A.45.45,0,0,0,127,237.94Z" style="fill:#263238"></path><path d="M85.73,224.22c1-.15,2.43.22,6.73,0a22.44,22.44,0,0,0,3.53-.52,7.76,7.76,0,0,0,3.29-1.28,17.13,17.13,0,0,0,3.8-5.08,26.15,26.15,0,0,0,2.7-6.3c0-.14.23-.07.2.06-.24,1.25-.38,2.5-.73,3.74a23.82,23.82,0,0,1-1.3,3.38c-1,2.05-2,4.24-3.92,5.6s-4.66,1.67-7,1.8c-1.36.07-6.68-.15-7.38-.92C85.52,224.54,85.54,224.25,85.73,224.22Z" style="fill:#263238"></path><path d="M160.9,179l-7.29.45a22.43,22.43,0,0,1-2.83-13.33c.08-1.06-2.19,5.09-.88,13.56-7.7.47-18.18,1.11-27.34,1.58-.31-3.58-.76-6.87-.76-6.87a39.76,39.76,0,0,1-1.24,7l-3.65.18a139.39,139.39,0,0,0-1.25-15.21,48.93,48.93,0,0,1-4,15.44c-5.82.24-9.65.29-9.41,0,8.42-10.42,1.76-16,3.93-25C108.83,146.06,118,144,117.38,136c-.45-6.5-1.7-18.28,6.43-21.11A15.84,15.84,0,0,1,140.87,111c13.18,4.49,8.79,24.75,9.83,28.8,1.47,5.79,4.33,7.74,6.65,14.31s-.54,11.24-.71,15.81S162.36,178.94,160.9,179Z" style="fill:#263238"></path><path d="M102,180.37a22.7,22.7,0,0,0,2.61-5.81,11.78,11.78,0,0,0-.25-6.11c-.47-2.07-1-4.18-1.31-6.39a17.16,17.16,0,0,1,.39-6.72,15.1,15.1,0,0,1,3.29-5.91,40.12,40.12,0,0,1,4.84-4.43,23.85,23.85,0,0,0,4.47-4.45,11.75,11.75,0,0,0,2.11-5.91,10.89,10.89,0,0,1-1.45,6.33,22.11,22.11,0,0,1-4.28,5,50.06,50.06,0,0,0-4.49,4.49,14.23,14.23,0,0,0-2.84,5.34,16.78,16.78,0,0,0-.39,6.09c.2,2.07.67,4.15,1,6.3a21.21,21.21,0,0,1,.33,3.31,9.64,9.64,0,0,1-.61,3.34A18.52,18.52,0,0,1,102,180.37Z" style="fill:#263238"></path><path d="M148.5,118.19a32.93,32.93,0,0,1,2.06,7.7c.42,2.63.73,5.27,1,7.9l.43,3.93a19.15,19.15,0,0,0,.73,3.75,21.31,21.31,0,0,0,3.8,6.59,29.74,29.74,0,0,1,2.25,3.39,18.18,18.18,0,0,1,1.59,3.84,28.08,28.08,0,0,1,.73,4,16.72,16.72,0,0,1-.08,4.12c-.18,1.36-.52,2.66-.79,3.93a20,20,0,0,0-.47,3.84,8.14,8.14,0,0,0,3.45,6.6,8.26,8.26,0,0,1-4.27-6.57,19.61,19.61,0,0,1,.19-4.06c.18-1.34.47-2.62.56-3.89a21.09,21.09,0,0,0-.88-7.56,18.28,18.28,0,0,0-1.5-3.46,28.07,28.07,0,0,0-2.17-3.19,39.21,39.21,0,0,1-2.29-3.34,16.42,16.42,0,0,1-1.68-3.81,21.53,21.53,0,0,1-.68-4.06c-.12-1.33-.2-2.66-.27-4-.15-2.64-.27-5.28-.49-7.91A38.86,38.86,0,0,0,148.5,118.19Z" style="fill:#263238"></path><path d="M118.3,160.91c12.7,24.32,22.42,37,29.44,36.8,7.74-.18,31.14-20.05,41-30.81,1.38-1.5-18.48-18.09-20.18-16.54-6.69,6.1-19.63,20.94-22.24,21.82-1.7.57-7.45-6-19.41-16.23C116.28,146.78,112.65,150.08,118.3,160.91Z" style="fill:#ad6359"></path><path d="M187.71,167.94c2.52-2,11.33-10.28,15.53-17.64,2-3.58,6.78-14.46,4.16-16.23s-4.3,1.28-4.3,1.28,1.32-4.9-1.48-6.44-5.25,3.3-5.25,3.3,1-5.13-1.92-6.46-4.55,3.94-4.55,3.94S191,125,188.17,125c-3.44-.12-4.54,8.69-7,12.53-.56.87-12.52,16.87-12.52,16.87Z" style="fill:#ad6359"></path><path d="M189.83,129.74c-.83,6.47-2.31,9.16-6.4,14.12-.08.09,0,.23.14.14,4.45-4.49,6.79-7.59,6.57-14.23C190.13,129.44,189.87,129.43,189.83,129.74Z" style="fill:#263238"></path><path d="M196.49,132c-1.45,6.64-3,9.57-6.93,15.08a.09.09,0,0,0,.14.1c4.27-5.08,6.54-8.23,7.11-15.06C196.84,131.78,196.55,131.66,196.49,132Z" style="fill:#263238"></path><path d="M203,135.89c-1.87,6.34-3.46,9.63-7.93,14.48a.12.12,0,0,0,.17.18c5-4.51,7.06-8.6,7.94-14.58C203.2,135.56,203.07,135.5,203,135.89Z" style="fill:#263238"></path><path d="M169.06,154.41s-1.08-8.1-.77-11.76,6.51-16.89,9.44-15.72c3.79,1.52,1.72,9.86.17,13.81,0,0,8.76,3.5,8.57,9.81S169.06,154.41,169.06,154.41Z" style="fill:#ad6359"></path><path d="M178.63,127.69c2.46,3.87.09,8.93-1.12,12.88a.37.37,0,0,0,.36.5c3.57,1.72,8.12,5.17,8.79,9.3a.1.1,0,0,0,.19,0c-.12-4.53-4.31-8.29-8.34-9.92,1.31-4,3.46-9.2.16-12.78C178.65,127.64,178.62,127.67,178.63,127.69Z" style="fill:#263238"></path><path d="M127.48,181.68,142,168.54s-10.63-10.87-18.14-16.19-12.06-4.26-6.82,8.14A193.13,193.13,0,0,0,127.48,181.68Z" style="fill:#37474F"></path><path d="M130.73,177.05a9,9,0,0,0-.58,2.21l.59-.53A7.87,7.87,0,0,0,130.73,177.05Zm4.65-11A9.24,9.24,0,0,0,133,166a9,9,0,0,0,2.27.58,9.79,9.79,0,0,0,2.36.07A8.91,8.91,0,0,0,135.38,166.08Zm-7.24-10.42-.46.33a9.35,9.35,0,0,0-1.71,1.62,9.71,9.71,0,0,0,2-1.2c.18-.14.36-.28.53-.43Z" style="fill:#fff"></path><path d="M138.94,166.8q-3.31,2.47-6.5,5.12c-1.05.87-2.11,1.72-3.14,2.61s-2.06,1.91-3.13,2.83c-.07.06,0,.19.1.12,1.06-.84,2.18-1.62,3.24-2.46s2.17-1.78,3.24-2.67q3.19-2.64,6.26-5.45C139.07,166.85,139,166.75,138.94,166.8Z" style="fill:#263238"></path><path d="M141,193l-.19,23.11s-44.42-5.59-56.69-7.28c0,0,15.67-44.49,29.9-58,7.11-6.76,14.86-5.7,19.49-.33,1.17,1.35,12.18,21.52,13.25,29.2C147.73,186.5,141,193,141,193Z" style="fill:#37474F"></path><path d="M124.17,187.42a54.89,54.89,0,0,1,7.93,1.71c1.29.4,2.55.86,3.8,1.34.63.24,1.26.46,1.9.68a8.43,8.43,0,0,0,2,.49.05.05,0,0,1,0,.1,14.53,14.53,0,0,1-2-.14,15.12,15.12,0,0,1-1.88-.45c-1.31-.39-2.59-.84-3.9-1.25-2.63-.82-5.26-1.64-7.94-2.26A.11.11,0,0,1,124.17,187.42Z" style="fill:#263238"></path><path d="M117.39,189.47a57.6,57.6,0,0,1,6.7,0c1.12.07,2.22.2,3.33.37.53.08,1,.16,1.58.26s1.14.28,1.72.38c.06,0,.06.1,0,.09-.55-.07-1.11-.05-1.66-.09l-1.67-.13c-1.11-.08-2.22-.15-3.33-.25-2.22-.18-4.44-.35-6.67-.46C117.26,189.65,117.28,189.47,117.39,189.47Z" style="fill:#263238"></path><path d="M120.31,172.31a9.64,9.64,0,0,0-1.61-1.71,9.32,9.32,0,0,0,1.19,2,9.68,9.68,0,0,0,1.62,1.71A8.76,8.76,0,0,0,120.31,172.31ZM95,196.34a10.38,10.38,0,0,0-1.42-1.54l0,.21a10.42,10.42,0,0,0,1,1.65,8.34,8.34,0,0,0,1.61,1.7A9.25,9.25,0,0,0,95,196.34Zm42,18.18a9.08,9.08,0,0,0-1.63-1.71,9.78,9.78,0,0,0,1.2,2c.23.29.46.58.71.85l.54.08A11.7,11.7,0,0,0,137,214.52Zm-12.1-21.46a9.44,9.44,0,0,0-1.63-1.72,9.6,9.6,0,0,0,1.2,2,9.31,9.31,0,0,0,1.62,1.7A8.66,8.66,0,0,0,124.87,193.06ZM127.68,156a9.35,9.35,0,0,0-1.71,1.62,10.6,10.6,0,0,0,3.73-2.82A9.13,9.13,0,0,0,127.68,156Zm-24.74,15.57a9.33,9.33,0,0,0-1.71,1.62,9.25,9.25,0,0,0,2-1.19,8.8,8.8,0,0,0,1.71-1.63A9,9,0,0,0,102.94,171.56Zm40,8.13a9.39,9.39,0,0,0-1.71,1.63,10.24,10.24,0,0,0,2-1.2,9.74,9.74,0,0,0,1.71-1.63A9.13,9.13,0,0,0,142.92,179.69Zm-8.19,22.63a8.68,8.68,0,0,0-1.7,1.62,9.93,9.93,0,0,0,2-1.19,9,9,0,0,0,1.7-1.63A9.13,9.13,0,0,0,134.73,202.32Zm-24.19-4.62a9.25,9.25,0,0,0-1.7,1.61,9.32,9.32,0,0,0,2-1.19,8.93,8.93,0,0,0,1.69-1.62A9.13,9.13,0,0,0,110.54,197.7Zm28.06-7.28a8.39,8.39,0,0,0-2.35-.06,9.67,9.67,0,0,0,2.28.58,8.8,8.8,0,0,0,2.35.06A8.69,8.69,0,0,0,138.6,190.42ZM101,205.89a8.41,8.41,0,0,0-2.35-.06,10.54,10.54,0,0,0,4.63.64A9.21,9.21,0,0,0,101,205.89Zm34.43-39.81A9.24,9.24,0,0,0,133,166a9,9,0,0,0,2.27.58,9.79,9.79,0,0,0,2.36.07A8.91,8.91,0,0,0,135.38,166.08Zm-19.3,18.3a8.39,8.39,0,0,0-2.35-.06,10.54,10.54,0,0,0,4.63.64A8.79,8.79,0,0,0,116.08,184.38Zm-28.4,18.74a9.1,9.1,0,0,0-.58,2.28,8.78,8.78,0,0,0-.06,2.35,9.32,9.32,0,0,0,.58-2.28A8.79,8.79,0,0,0,87.68,203.12Zm43-26.07a10.17,10.17,0,0,0-.64,4.63,9.92,9.92,0,0,0,.58-2.28A9.23,9.23,0,0,0,130.73,177.05Zm-17-19.14a8.69,8.69,0,0,0-.58,2.28,8.39,8.39,0,0,0-.06,2.35,9.79,9.79,0,0,0,.58-2.28A9.22,9.22,0,0,0,113.73,157.91Zm6.36,47.52a9.46,9.46,0,0,0-.59,2.28,10.26,10.26,0,0,0-.06,2.35,9,9,0,0,0,.59-2.28A9.67,9.67,0,0,0,120.09,205.43Zm-16.36-22.21a10,10,0,0,0-.59,2.28,10.26,10.26,0,0,0-.06,2.35,10.74,10.74,0,0,0,.65-4.63Z" style="fill:#fff"></path><path d="M123.75,148.76c.08,1,3.77,8.09,8.28,8.57,1.47.16,2.67-7.82,2.67-7.82l.22-.57,3.11-8-8.73-7.71-1.28-1s-.71,2.23-1.56,5l-.12.4c0,.16-.11.31-.15.45l-.39,1.27c-.09.32-.19.64-.28,1s-.18.68-.28,1A54.54,54.54,0,0,0,123.75,148.76Z" style="fill:#ad6359"></path><path d="M126.46,137.25a17.18,17.18,0,0,0,8.46,11.69l3.11-8-8.73-7.71-1.28-1S127.31,134.46,126.46,137.25Z" style="fill:#263238"></path><path d="M151.31,127.46c1.6,14.93-7.16,17.57-10.38,17.91-2.92.31-12.91,1-16-13.69s3.31-20.14,10-21.2S149.72,112.54,151.31,127.46Z" style="fill:#ad6359"></path><path d="M148.65,125.45a8.85,8.85,0,0,1-1-.17,1.63,1.63,0,0,1-1-.38.54.54,0,0,1,0-.65,1.32,1.32,0,0,1,1.3-.36,1.93,1.93,0,0,1,1.24.64A.57.57,0,0,1,148.65,125.45Z" style="fill:#263238"></path><path d="M138.92,126.09a8.6,8.6,0,0,0,1-.25,1.68,1.68,0,0,0,1-.45.54.54,0,0,0,0-.65,1.31,1.31,0,0,0-1.32-.26,2,2,0,0,0-1.2.73A.57.57,0,0,0,138.92,126.09Z" style="fill:#263238"></path><path d="M141.05,129.8s-.07,0-.07.1c.09,1,0,2.2-.87,2.59a0,0,0,0,0,0,.06C141.24,132.32,141.31,130.75,141.05,129.8Z" style="fill:#263238"></path><path d="M140.08,128.79c-1.65,0-1.58,3.27-.05,3.3S141.46,128.81,140.08,128.79Z" style="fill:#263238"></path><path d="M139.43,129c-.28.19-.55.53-.9.57s-.71-.29-1-.62c0,0-.06,0-.06,0,0,.63.26,1.28.94,1.36s1-.5,1.2-1.14C139.65,129.07,139.55,128.9,139.43,129Z" style="fill:#263238"></path><path d="M141.08,137.69c.24.25.47.58.84.62a2.66,2.66,0,0,0,1.11-.23,0,0,0,0,1,0,.06,1.39,1.39,0,0,1-1.31.52,1.09,1.09,0,0,1-.78-.92C141,137.68,141,137.66,141.08,137.69Z" style="fill:#263238"></path><path d="M145.23,133.86s.26,1.52.28,2.24c0,.07-.17.1-.41.13,0,0,0,0,0,0a3.42,3.42,0,0,1-3.36-1.17c-.06-.07,0-.15.1-.1a5.18,5.18,0,0,0,3.15.79c0-.2-.53-2.59-.42-2.6a6.15,6.15,0,0,1,1.65.32c-.45-3.18-1.41-6.26-1.81-9.44a.1.1,0,0,1,.19,0A52.17,52.17,0,0,1,147,134.06C147,134.47,145.52,134,145.23,133.86Z" style="fill:#263238"></path><path d="M145,136a4.17,4.17,0,0,1-1.59,1.41,1.84,1.84,0,0,1-1.14.14c-.84-.16-.91-.91-.8-1.57a4.38,4.38,0,0,1,.31-1A5.41,5.41,0,0,0,145,136Z" style="fill:#263238"></path><path d="M143.4,137.37a1.84,1.84,0,0,1-1.14.14c-.84-.16-.91-.91-.8-1.57A1.94,1.94,0,0,1,143.4,137.37Z" style="fill:#ff99ba"></path><path d="M149.89,129.05a3.1,3.1,0,0,0-.81-.11,3,3,0,0,0-.84.12,2.24,2.24,0,0,0-.77.42,2.07,2.07,0,0,0-.55.73l-.22.51.55-.1a5.8,5.8,0,0,1,1.19-.1,2.42,2.42,0,0,1,1.18.29,1.84,1.84,0,0,0-1.12-.73,3.7,3.7,0,0,0-1.37,0l.33.41a2,2,0,0,1,1-.93A6.25,6.25,0,0,1,149.89,129.05Z" style="fill:#263238"></path><path d="M148.5,131.4a4.83,4.83,0,0,1-1.25-.35c-.09-.05-.45-.26-.44-.33a2.39,2.39,0,0,1,.17-.62,1.57,1.57,0,0,0-.29.61.83.83,0,0,0,.48.52A2.6,2.6,0,0,0,148.5,131.4Z" style="fill:#263238"></path><path d="M125.11,132c3.62-.26,3.12-6,3.12-6s4.08-.71,3.83-7.36a10.07,10.07,0,0,0,7.94,4.19c1.19.08-3-2.65-3-2.65s5.08,3.89,13.73,1.54c.61-.16-1.48-9.31-8.63-11.9s-13.21-.29-17.11,4.41a8.37,8.37,0,0,0-3.88,6.88C120.93,125.93,123.7,132.07,125.11,132Z" style="fill:#263238"></path><path d="M128.34,132.19s-3.37-4.62-5.47-3.41.49,8,3,8.84a2.54,2.54,0,0,0,3.37-1.44Z" style="fill:#ad6359"></path><path d="M123.66,130.7s0,.05,0,.07a6.41,6.41,0,0,1,3.4,3.94,1.42,1.42,0,0,0-2.11-.34s0,.11,0,.09a1.57,1.57,0,0,1,1.73.52,7.32,7.32,0,0,1,.85,1.37c.09.15.37.06.3-.12v0C127.86,134,126.06,130.88,123.66,130.7Z" style="fill:#263238"></path><rect x="176.43" y="127.27" width="21.42" height="14.89" transform="matrix(-0.99, -0.16, 0.16, -0.99, 350.07, 297.88)" style="fill:#37474f"></rect><polygon points="196.11 146.18 203.92 147.45 207.6 127.9 199.41 126.04 196.11 146.18" style="fill:#263238"></polygon><polygon points="159.66 144.13 176.57 146.9 179.7 118.9 164.88 116.47 159.66 144.13" style="fill:#263238"></polygon><polygon points="173.23 117.84 172.73 114.99 168.72 114.34 166.83 116.79 173.23 117.84" style="fill:#263238"></polygon><path d="M120.12,165.46c13,25.16,19.48,35.8,25.76,36.45,9.63,1,23.79-21,30.28-30.89,1-1.49-16.33-19.89-17.48-18.24-6,8.52-12.9,23.16-14.35,23s-8.69-11.31-18.92-21.69C116.78,145.34,114.82,155.2,120.12,165.46Z" style="fill:#ad6359"></path><path d="M193.9,137.53c1.16,2.63-5.59,4.94-5.59,4.94a5.31,5.31,0,0,1,3.14,1.8c1.34,1.73-.8,4.59-.8,4.59a6.5,6.5,0,0,1,3,2.41c1.11,1.79-.63,5-.63,5a5.7,5.7,0,0,1,1.3,3.79c-.24,3.68-5.21,6.35-8.35,8.08s-13.68,3.69-15.65,4.26l-10.63-22.9s11.25-8.89,15.24-10.4C178.29,137.81,192.13,133.5,193.9,137.53Z" style="fill:#ad6359"></path><path d="M188.22,142.42A48.68,48.68,0,0,0,177,145.75a.07.07,0,0,0,.05.13c3.58-1.45,7.64-2,11.27-3.28C188.37,142.57,188.33,142.41,188.22,142.42Z" style="fill:#263238"></path><path d="M190.44,148.63a10,10,0,0,0-2.51.93c-.86.38-1.72.79-2.57,1.2-1.7.84-3.39,1.71-5.05,2.63-.07,0,0,.17.05.13,1.7-.83,3.41-1.63,5.15-2.39.86-.38,1.74-.75,2.61-1.11a12.49,12.49,0,0,0,2.42-1.15A.14.14,0,0,0,190.44,148.63Z" style="fill:#263238"></path><path d="M193,156.28a7.16,7.16,0,0,0-2.22,1c-.76.39-1.53.79-2.31,1.17-1.54.78-3.09,1.55-4.66,2.27a.07.07,0,0,0,0,.13c1.6-.73,3.21-1.43,4.8-2.17l2.35-1.1a6.55,6.55,0,0,0,2-1.18S193,156.28,193,156.28Z" style="fill:#263238"></path><path d="M169.24,143c-1.56.08-3.11-3.78-3.56-6.33s-3.13-6.09-5.2-5.89-1.86,5.11-1.52,8.18.38,12.93-.51,14.44,5.22,4.44,5.22,4.44Z" style="fill:#ad6359"></path><path d="M149.63,168.13a56.59,56.59,0,0,0-5,7.51c-.13-.08-.25-.17-.38-.24a4.51,4.51,0,0,1-.61-.44,10.63,10.63,0,0,1-1.1-1c-.07-.07-.19,0-.12.12a11.24,11.24,0,0,0,1,1.16,2.72,2.72,0,0,0,1,.66c-1.82,3.22-3.43,6.57-5,9.91a.09.09,0,0,0,.16.07c1.5-3,3.23-6,4.91-8.93s3.52-5.8,5.16-8.76A0,0,0,0,0,149.63,168.13Z" style="fill:#263238"></path><path d="M190.22,165.39a32.86,32.86,0,0,1-3.15,2.07,23.64,23.64,0,0,1-3.33,1.39,35.87,35.87,0,0,1-3.94,1.08c-1.12.26-3.69.82-3.75.9-1.25,1.67-2.31,3.5-3.49,5.22s-2.38,3.46-3.6,5.16-2.4,3.33-3.63,5-2.48,3.52-3.88,5.12a.09.09,0,1,0,.13.11c1.3-1.69,2.78-3.26,4.1-4.94s2.57-3.31,3.8-5,2.44-3.41,3.59-5.16a58.1,58.1,0,0,0,3.26-5.11s1.22-.27,1.77-.36c.71-.12,1.41-.27,2.11-.43a28.32,28.32,0,0,0,3.92-1.14,21,21,0,0,0,3.21-1.54,11.23,11.23,0,0,0,2.94-2.27S190.27,165.37,190.22,165.39Z" style="fill:#263238"></path><path d="M194.53,158.6a6.71,6.71,0,0,0-1.23-2.48h0a7.55,7.55,0,0,0,.59-1,6.12,6.12,0,0,0,.32-1.11,4.5,4.5,0,0,0-.17-2.3,5.59,5.59,0,0,0-3.16-3,6.15,6.15,0,0,0,1-1.93,2.82,2.82,0,0,0-1.13-3.54,4.82,4.82,0,0,0-1-.52,2.78,2.78,0,0,0-1.05-.25.06.06,0,0,0,0,.1,5.1,5.1,0,0,0,.87.35,4.38,4.38,0,0,1,1,.5,2.89,2.89,0,0,1,1.15,1.41,3.17,3.17,0,0,1-.08,1.95,9.51,9.51,0,0,1-.91,2,.09.09,0,0,0,.07.12.13.13,0,0,0,.07.08,5.34,5.34,0,0,1,2.86,2.95,4.61,4.61,0,0,1,.08,2.12,6.3,6.3,0,0,1-.27,1.12,8.32,8.32,0,0,1-.4,1.19,6.65,6.65,0,0,1,1.06,2.32,5.26,5.26,0,0,1-.07,2.83c0,.1,0,.06.09,0A3.66,3.66,0,0,0,194.53,158.6Z" style="fill:#263238"></path><path d="M126.42,182.44l15.32-12.21s-7.85-10.34-15-16.11-13.84-6.18-9.39,6.52A192.87,192.87,0,0,0,126.42,182.44Z" style="fill:#37474F"></path><path d="M130.73,177.05a9.12,9.12,0,0,0-.59,2.28s0,.11,0,.16l.59-.47A8.11,8.11,0,0,0,130.73,177.05Zm4.65-11A9.24,9.24,0,0,0,133,166a9,9,0,0,0,2.27.58,9.79,9.79,0,0,0,2.36.07A8.91,8.91,0,0,0,135.38,166.08Zm-7-10.57q-.36.23-.69.48a9.35,9.35,0,0,0-1.71,1.62,9.71,9.71,0,0,0,2-1.2c.25-.19.49-.39.72-.59Z" style="fill:#fff"></path><path d="M138.79,168.31q-3.47,2.26-6.81,4.7c-1.1.8-2.21,1.59-3.29,2.41s-2.18,1.78-3.3,2.62c-.08.06,0,.19.08.13,1.12-.77,2.28-1.48,3.4-2.25s2.27-1.64,3.4-2.46c2.24-1.63,4.43-3.31,6.59-5.05C138.92,168.36,138.86,168.26,138.79,168.31Z" style="fill:#263238"></path><path d="M128.32,180.93c-.09,0-1.9,1.49-1.93,1.51-1-2.67-2.42-5.19-3.61-7.79s-2.39-5.3-3.48-8c0-.06-.13,0-.1,0,.47,1.36.92,2.74,1.44,4.09.26.68.54,1.34.82,2-.16-.24-.32-.48-.49-.71-.51-.69-1.07-1.34-1.65-2,0,0-.09,0-.06.05a23.79,23.79,0,0,0,1.45,2.15c.38.5.78,1,1.17,1.45l.51,1.15a50.24,50.24,0,0,0,3.92,8s2-1.79,2.07-1.88A.06.06,0,0,0,128.32,180.93Z" style="fill:#263238"></path><path d="M139.93,171.69c.07-.06,1.81-1.84,1.84-1.86-1.94-2.1-3.25-3.66-5.06-5.87s-2-2.46-4-4.62c-.05-.05,0-.13.07-.08,1,1,2.07,2,3.06,3.09.49.53,1,1.07,1.43,1.61-.14-.25-.29-.49-.42-.75a24.81,24.81,0,0,1-1.06-2.35s.05-.07.07,0a23.73,23.73,0,0,1,1.3,2.24c.28.56.53,1.13.79,1.7a29.22,29.22,0,0,1,4.24,5.2s-2.13,1.81-2.24,1.82S139.88,171.73,139.93,171.69Z" style="fill:#263238"></path></g><g id="freepik--Fountain--inject-7"><path d="M249.55,176.27a20.16,20.16,0,0,0-9,3.12,37.63,37.63,0,0,0-7.56,5.92A55.43,55.43,0,0,0,222,201a71.11,71.11,0,0,0-3.61,8.92c-1,3.07-1.78,6.19-2.45,9.34a92.86,92.86,0,0,0-1.46,9.55c-.4,3.21-.53,6.44-.69,9.67a94.66,94.66,0,0,1,1.4-19.37,74,74,0,0,1,5.91-18.55,54.49,54.49,0,0,1,11.34-15.82,38.32,38.32,0,0,1,7.85-5.78A19.61,19.61,0,0,1,249.55,176.27Z" style="fill:#dbdbdb"></path><path d="M247.63,176.27a24.66,24.66,0,0,0-9.61,2.78,44.23,44.23,0,0,0-8.39,5.49,56,56,0,0,0-12.78,15.33,68.76,68.76,0,0,0-7.33,18.64,77.06,77.06,0,0,0-1.79,9.91c-.48,3.33-.62,6.7-.78,10.07a82.88,82.88,0,0,1,1.82-20.16,68,68,0,0,1,7.21-19,55.13,55.13,0,0,1,13.17-15.43,44,44,0,0,1,8.66-5.33,31.43,31.43,0,0,1,4.8-1.69A17.39,17.39,0,0,1,247.63,176.27Z" style="fill:#dbdbdb"></path><path d="M248.77,176.27c-3.06.24-5.73,1.95-8,3.83a34.86,34.86,0,0,0-6.09,6.63,61.47,61.47,0,0,0-8.16,16.07,96.21,96.21,0,0,0-4.3,17.58c-.46,3-.82,6-1.06,9-.17,1.51-.22,3-.34,4.54l-.21,4.55q-.13-4.56.06-9.12c.14-3,.41-6.07.79-9.1a88.81,88.81,0,0,1,1.61-9,84.91,84.91,0,0,1,2.51-8.81A59.76,59.76,0,0,1,234,186.27a35.5,35.5,0,0,1,6.41-6.55,21.86,21.86,0,0,1,3.92-2.39A10.48,10.48,0,0,1,248.77,176.27Z" style="fill:#dbdbdb"></path><path d="M248.61,176.27a7.29,7.29,0,0,0-3.88,1.67,18.24,18.24,0,0,0-3,3,37,37,0,0,0-4.55,7.23,76.79,76.79,0,0,0-5.63,16.18,130.73,130.73,0,0,0-2.89,16.95c-.34,2.85-.56,5.71-.75,8.58-.11,1.43-.17,2.87-.26,4.31l-.18,4.31c-.1-2.88-.1-5.76-.05-8.64s.22-5.76.47-8.64a119.62,119.62,0,0,1,2.69-17.11,72.88,72.88,0,0,1,5.92-16.29,36.7,36.7,0,0,1,4.86-7.2,19,19,0,0,1,3.25-2.89,10.71,10.71,0,0,1,1.91-1A6,6,0,0,1,248.61,176.27Z" style="fill:#dbdbdb"></path><path d="M248.77,176.27a5.06,5.06,0,0,0-3.27,2.26,21.48,21.48,0,0,0-2.09,3.52,55.12,55.12,0,0,0-3,7.65,129,129,0,0,0-3.91,16c-1,5.4-1.79,10.85-2.37,16.32s-.93,11-1.16,16.48q-.14-4.14,0-8.28t.43-8.27a165.2,165.2,0,0,1,2.16-16.43,115.73,115.73,0,0,1,4.17-16,53,53,0,0,1,3.28-7.63,20.7,20.7,0,0,1,2.32-3.46c.23-.27.48-.51.72-.77s.52-.45.8-.66A3.66,3.66,0,0,1,248.77,176.27Z" style="fill:#dbdbdb"></path><path d="M247.63,176.27a1.16,1.16,0,0,0-.76.57,6.55,6.55,0,0,0-.46.87,16.93,16.93,0,0,0-.66,1.85c-.38,1.26-.67,2.54-.93,3.83-.55,2.58-1,5.18-1.34,7.79-.74,5.22-1.36,10.45-1.8,15.71s-.87,10.51-1.19,15.78c-.17,2.63-.31,5.27-.42,7.9s-.22,5.28-.34,7.92c-.2-5.28-.17-10.57,0-15.86s.52-10.56,1-15.83,1.12-10.53,2-15.74c.47-2.61,1-5.21,1.62-7.78.34-1.28.7-2.56,1.16-3.81a14,14,0,0,1,.78-1.83,5.65,5.65,0,0,1,.53-.84A1.16,1.16,0,0,1,247.63,176.27Z" style="fill:#dbdbdb"></path><path d="M247.63,176.27c.2,5.16.3,10.33.38,15.49s.07,10.32.12,15.49,0,10.32-.12,15.49l-.14,7.74c-.08,2.58-.13,5.17-.24,7.75-.12-2.58-.17-5.17-.25-7.75l-.14-7.74c-.08-5.17-.07-10.33-.11-15.49s0-10.33.11-15.49S247.42,181.43,247.63,176.27Z" style="fill:#dbdbdb"></path><path d="M342.8,176.27a19.61,19.61,0,0,1,9.27,2.7,38.38,38.38,0,0,1,7.86,5.78,54.64,54.64,0,0,1,11.33,15.82,74,74,0,0,1,5.92,18.55,94.65,94.65,0,0,1,1.39,19.37c-.15-3.23-.29-6.46-.68-9.67a92.88,92.88,0,0,0-1.47-9.55,94.29,94.29,0,0,0-2.45-9.34,69.63,69.63,0,0,0-3.61-8.92,55,55,0,0,0-11-15.7,37.63,37.63,0,0,0-7.56-5.92A20.17,20.17,0,0,0,342.8,176.27Z" style="fill:#dbdbdb"></path><path d="M344.72,176.27a17.44,17.44,0,0,1,5,.65,31.69,31.69,0,0,1,4.79,1.69,44,44,0,0,1,8.66,5.33,55,55,0,0,1,13.17,15.43,61.42,61.42,0,0,1,4.32,9.22,64.86,64.86,0,0,1,2.9,9.74,83.38,83.38,0,0,1,1.82,20.16c-.17-3.37-.31-6.74-.78-10.07a80.67,80.67,0,0,0-1.79-9.91,69.41,69.41,0,0,0-7.33-18.64,56,56,0,0,0-12.79-15.33,43.61,43.61,0,0,0-8.39-5.49A24.67,24.67,0,0,0,344.72,176.27Z" style="fill:#dbdbdb"></path><path d="M343.58,176.27a10.44,10.44,0,0,1,4.41,1.06,21.18,21.18,0,0,1,3.92,2.39,35.19,35.19,0,0,1,6.41,6.55,59.21,59.21,0,0,1,8.48,16.19,80.24,80.24,0,0,1,2.51,8.81,88.81,88.81,0,0,1,1.61,9c.38,3,.65,6.06.79,9.1s.15,6.08.06,9.12l-.21-4.55c-.11-1.51-.17-3-.33-4.54q-.36-4.53-1.07-9a95.39,95.39,0,0,0-4.3-17.58,61.13,61.13,0,0,0-8.15-16.07,35.24,35.24,0,0,0-6.1-6.63C349.3,178.22,346.64,176.51,343.58,176.27Z" style="fill:#dbdbdb"></path><path d="M343.73,176.27a5.92,5.92,0,0,1,2.12.41,10.37,10.37,0,0,1,1.91,1,19.06,19.06,0,0,1,3.26,2.89,37.6,37.6,0,0,1,4.86,7.2,72.88,72.88,0,0,1,5.92,16.29,119.6,119.6,0,0,1,2.68,17.11c.25,2.88.38,5.76.48,8.64s.05,5.76,0,8.64l-.18-4.31c-.09-1.44-.15-2.88-.26-4.31-.2-2.87-.41-5.73-.76-8.58a130.7,130.7,0,0,0-2.88-16.95,76.79,76.79,0,0,0-5.63-16.18,37.44,37.44,0,0,0-4.55-7.23,18.3,18.3,0,0,0-3-3A7.29,7.29,0,0,0,343.73,176.27Z" style="fill:#dbdbdb"></path><path d="M343.58,176.27a3.63,3.63,0,0,1,1.94.67q.42.31.81.66c.24.26.49.5.71.77a20.11,20.11,0,0,1,2.32,3.46,53,53,0,0,1,3.29,7.63,115.7,115.7,0,0,1,4.16,16A159.51,159.51,0,0,1,359,221.94c.22,2.76.35,5.52.44,8.27s0,5.52-.05,8.28c-.22-5.51-.56-11-1.15-16.48s-1.32-10.92-2.38-16.32a129,129,0,0,0-3.91-16,53.9,53.9,0,0,0-3-7.65,20.8,20.8,0,0,0-2.09-3.52A5.07,5.07,0,0,0,343.58,176.27Z" style="fill:#dbdbdb"></path><path d="M344.72,176.27a1.15,1.15,0,0,1,.81.53,5.71,5.71,0,0,1,.54.84,17.33,17.33,0,0,1,.78,1.83c.45,1.25.82,2.53,1.15,3.81.65,2.57,1.16,5.17,1.62,7.78.91,5.21,1.51,10.48,2,15.74s.8,10.55,1,15.83.18,10.58,0,15.86c-.12-2.64-.19-5.28-.34-7.92s-.24-5.27-.41-7.9c-.32-5.27-.67-10.53-1.2-15.78s-1.05-10.49-1.79-15.71c-.37-2.61-.8-5.21-1.34-7.79-.26-1.29-.56-2.57-.93-3.83a15.12,15.12,0,0,0-.67-1.85,4.83,4.83,0,0,0-.46-.87A1.14,1.14,0,0,0,344.72,176.27Z" style="fill:#dbdbdb"></path><path d="M344.72,176.27c.2,5.16.3,10.33.38,15.49s.08,10.32.12,15.49,0,10.32-.12,15.49l-.14,7.74c-.08,2.58-.13,5.17-.24,7.75-.12-2.58-.16-5.17-.25-7.75l-.14-7.74c-.08-5.17-.07-10.33-.11-15.49s0-10.33.11-15.49S344.51,181.43,344.72,176.27Z" style="fill:#dbdbdb"></path><path d="M263.75,176.27c.9-1.44,1.77-2.9,2.72-4.31l1.53-2.05a21.76,21.76,0,0,1,1.6-2l1.71-1.91c.56-.64,1.23-1.18,1.84-1.78a46.13,46.13,0,0,1,3.92-3.32,39,39,0,0,1,9-4.91,29.63,29.63,0,0,1,10.11-2.1h0a29.84,29.84,0,0,1,9.89,2,35.76,35.76,0,0,1,8.79,4.86c.66.51,1.29,1.07,1.94,1.6.31.28.65.53,1,.82l.88.89c.59.6,1.2,1.17,1.76,1.8l1.6,1.92c.26.33.53.64.78,1l.71,1,1.4,2.07c.87,1.42,1.63,2.9,2.44,4.35-.9-1.4-1.74-2.83-2.66-4.2l-1.49-2-.74-1c-.26-.32-.54-.62-.82-.93L320,166.3c-.57-.61-1.19-1.15-1.78-1.72l-.89-.86c-.31-.27-.64-.51-1-.77-.65-.51-1.28-1-1.94-1.53a38.15,38.15,0,0,0-8.66-4.62,28.61,28.61,0,0,0-9.53-1.9h0a29.23,29.23,0,0,0-9.75,1.95,41.68,41.68,0,0,0-8.88,4.69,46.21,46.21,0,0,0-3.95,3.15c-.61.58-1.28,1.1-1.86,1.72L270,168.25a18.91,18.91,0,0,0-1.67,1.9l-1.61,2C265.68,173.48,264.74,174.89,263.75,176.27Z" style="fill:#dbdbdb"></path><path d="M272,176.27l1.76-3.89c.66-1.25,1.34-2.5,2-3.75a44,44,0,0,1,5.16-6.84,27.38,27.38,0,0,1,6.71-5.39,22.71,22.71,0,0,1,4-1.73,14,14,0,0,1,4.35-.77h0a14.72,14.72,0,0,1,4.27.76,21.3,21.3,0,0,1,3.91,1.72,25.86,25.86,0,0,1,6.55,5.35,39.34,39.34,0,0,1,4.88,6.88c.64,1.24,1.25,2.5,1.86,3.76l1.55,3.9-1.79-3.78c-.67-1.22-1.35-2.44-2-3.64a39.48,39.48,0,0,0-5-6.6,27.19,27.19,0,0,0-6.43-5.08,20.73,20.73,0,0,0-3.76-1.6,13.92,13.92,0,0,0-3.94-.67h0a13.38,13.38,0,0,0-4,.68,21,21,0,0,0-3.83,1.62,29.23,29.23,0,0,0-6.6,5.12,44.11,44.11,0,0,0-5.29,6.57c-.75,1.2-1.5,2.4-2.22,3.62Z" style="fill:#dbdbdb"></path><path d="M278,176.34l1.22-3.58c.43-1.19.95-2.34,1.42-3.51s1.13-2.26,1.69-3.4,1.25-2.2,2-3.24l1.11-1.56c.4-.49.83-1,1.24-1.45a17.46,17.46,0,0,1,1.34-1.38,15.89,15.89,0,0,1,1.46-1.26,16.59,16.59,0,0,1,3.29-2,9.36,9.36,0,0,1,3.87-.95h-.06a9.44,9.44,0,0,1,3.81.95,15.51,15.51,0,0,1,3.25,2,21.32,21.32,0,0,1,2.74,2.63l1.21,1.46,1.06,1.56a16.45,16.45,0,0,1,1,1.61l.92,1.64c.51,1.14,1.09,2.25,1.55,3.41s.9,2.33,1.29,3.51l1.06,3.58-1.31-3.49c-.45-1.15-1-2.27-1.48-3.41s-1.12-2.2-1.67-3.3l-1-1.58a15.79,15.79,0,0,0-1-1.54,24.2,24.2,0,0,0-4.93-5.36,14.32,14.32,0,0,0-3.08-1.87,8.64,8.64,0,0,0-3.37-.82h-.06a8.56,8.56,0,0,0-3.41.82,15.09,15.09,0,0,0-3.12,1.89,26.17,26.17,0,0,0-5.08,5.37c-.76,1-1.39,2.07-2.08,3.11s-1.23,2.18-1.79,3.3-1.12,2.25-1.62,3.4Z" style="fill:#dbdbdb"></path><path d="M282.35,176.34c.52-2.22,1.08-4.43,1.78-6.6a55.31,55.31,0,0,1,2.53-6.38,26.87,26.87,0,0,1,3.75-5.8,13.67,13.67,0,0,1,2.62-2.35,6,6,0,0,1,.77-.46,5.12,5.12,0,0,1,.82-.39,4.64,4.64,0,0,1,1.88-.39h-.08a4.84,4.84,0,0,1,1.85.4,8.5,8.5,0,0,1,1.58.84l.72.52.66.58a14.28,14.28,0,0,1,1.21,1.25,25.26,25.26,0,0,1,3.63,5.81,50.87,50.87,0,0,1,2.35,6.38c.64,2.17,1.13,4.38,1.57,6.59l-1-3.24c-.3-1.09-.72-2.13-1.07-3.2a55.1,55.1,0,0,0-2.58-6.2,29,29,0,0,0-3.62-5.54A12.7,12.7,0,0,0,300.6,157l-.61-.53-.66-.46a7.26,7.26,0,0,0-1.41-.73,4,4,0,0,0-1.43-.31h-.08a4.3,4.3,0,0,0-1.44.31,5.17,5.17,0,0,0-.72.33,5.23,5.23,0,0,0-.69.41,12.63,12.63,0,0,0-2.47,2.15,30.54,30.54,0,0,0-3.75,5.55,57.1,57.1,0,0,0-2.75,6.19c-.38,1.07-.83,2.11-1.17,3.2Z" style="fill:#dbdbdb"></path><path d="M303.74,177.93H288.61s1.77-23.53,7.56-23.53S303.74,177.93,303.74,177.93Z" style="fill:#37474F"></path><path d="M303.74,177.93H288.61s1.77-23.53,7.56-23.53S303.74,177.93,303.74,177.93Z" style="opacity:0.2"></path><path d="M343.21,180.51s-5.09,14-14.27,17.52-25,6.35-25.85,9.74,5.09,20.59,5.09,26.95-3.39,11.58-12,11.58-12-5.23-12-11.58,5.93-23.56,5.08-26.95-16.67-6.21-25.84-9.74-14.27-17.52-14.27-17.52Z" style="fill:#37474F"></path><path d="M343.21,180.51s-5.09,14-14.27,17.52-25,6.35-25.85,9.74,5.09,20.59,5.09,26.95-3.39,11.58-12,11.58-12-5.23-12-11.58,5.93-23.56,5.08-26.95-16.67-6.21-25.84-9.74-14.27-17.52-14.27-17.52Z" style="fill:#37474F"></path><path d="M343.21,180.51s-5.09,14-14.27,17.52-25,6.35-25.85,9.74,5.09,20.59,5.09,26.95-3.39,11.58-12,11.58-12-5.23-12-11.58,5.93-23.56,5.08-26.95-16.67-6.21-25.84-9.74-14.27-17.52-14.27-17.52Z" style="opacity:0.2"></path><path d="M343.21,180.51a45.63,45.63,0,0,1-3.34,6.84H252.48a45.63,45.63,0,0,1-3.34-6.84Z" style="opacity:0.1"></path><rect x="244.4" y="176.27" width="103.54" height="5.51" style="fill:#37474F"></rect><rect x="244.4" y="176.27" width="103.54" height="5.51" style="opacity:0.1"></rect><g style="opacity:0.1"><path d="M288.09,202c-4.83-1-9.63-2.14-14.36-3.54a36,36,0,0,1-6.94-2.69,21.14,21.14,0,0,1-3.14-2,12.16,12.16,0,0,1-1.4-1.29,4,4,0,0,1-1.05-1.75.83.83,0,0,1,.28-.77,1,1,0,0,1,.66-.18,4.55,4.55,0,0,1,1,.14,17.82,17.82,0,0,1,1.8.54c1.17.42,2.32.9,3.45,1.39,2.27,1,4.5,2,6.7,3.15Q281.69,198.27,288.09,202Zm0,0c-4.4-2.22-8.81-4.43-13.25-6.53-2.23-1-4.45-2.09-6.72-3-1.13-.48-2.26-.94-3.41-1.34a16.33,16.33,0,0,0-1.74-.51,4.12,4.12,0,0,0-.82-.11.89.89,0,0,0-.23,0s0,0,0,.08a3.36,3.36,0,0,0,.85,1.36,10.77,10.77,0,0,0,1.3,1.22,19.81,19.81,0,0,0,3,2,39.26,39.26,0,0,0,6.78,2.74c2.33.77,4.7,1.45,7.07,2.12S285.71,201.34,288.09,202Z"></path><path d="M294.06,202c-.71-2.21-1.43-4.41-2.28-6.55a28.36,28.36,0,0,0-1.42-3.12,6.84,6.84,0,0,0-.94-1.34,1.56,1.56,0,0,0-.56-.43.71.71,0,0,0-.28-.06.84.84,0,0,0-.29,0,.42.42,0,0,0-.27.37,2,2,0,0,0,0,.73,7.81,7.81,0,0,0,.52,1.57,28.35,28.35,0,0,0,1.62,3C291.38,198.2,292.71,200.1,294.06,202Zm0,0a43.14,43.14,0,0,1-4.35-5.45,21.33,21.33,0,0,1-1.75-3,8.44,8.44,0,0,1-.61-1.71,2.68,2.68,0,0,1-.05-1,1.17,1.17,0,0,1,.72-.95,1.58,1.58,0,0,1,.55-.09,1.49,1.49,0,0,1,.57.12,2.41,2.41,0,0,1,.8.62,7,7,0,0,1,1,1.51,20.78,20.78,0,0,1,1.36,3.24A46.45,46.45,0,0,1,294.06,202Z"></path><path d="M291.6,202c-1.17-1.32-2.36-2.61-3.61-3.83a46.38,46.38,0,0,0-3.88-3.54,26.78,26.78,0,0,0-4.27-2.94,11.1,11.1,0,0,0-2.36-1,4.79,4.79,0,0,0-1.23-.2,2.26,2.26,0,0,0-1.12.06l-.07,0v.06a1.42,1.42,0,0,0,.25.43,6.62,6.62,0,0,0,.87.89,25,25,0,0,0,2.05,1.6c1.42,1,2.9,1.95,4.37,2.9C285.56,198.38,288.58,200.18,291.6,202Zm0,0c-3.17-1.54-6.26-3.21-9.3-5-1.52-.88-3-1.83-4.47-2.83-.72-.51-1.44-1-2.12-1.62a7,7,0,0,1-1-1,1.91,1.91,0,0,1-.39-.71.81.81,0,0,1,.06-.58.93.93,0,0,1,.42-.38,3.08,3.08,0,0,1,1.48-.11,6.16,6.16,0,0,1,1.36.25,11.47,11.47,0,0,1,2.5,1,23.42,23.42,0,0,1,4.33,3.11A50.09,50.09,0,0,1,291.6,202Z"></path><path d="M304.26,202c2.38-.65,4.76-1.28,7.12-2s4.73-1.35,7.07-2.12a39.26,39.26,0,0,0,6.78-2.74,20.32,20.32,0,0,0,3-2,11.58,11.58,0,0,0,1.3-1.22,3.47,3.47,0,0,0,.85-1.36c0-.09,0-.12,0-.08a.76.76,0,0,0-.22,0,4.31,4.31,0,0,0-.83.11,16.87,16.87,0,0,0-1.73.51c-1.15.4-2.29.86-3.42,1.34-2.26,1-4.48,2-6.71,3C313.06,197.56,308.66,199.77,304.26,202Zm0,0q6.38-3.74,13-7.05c2.19-1.12,4.43-2.16,6.69-3.15,1.14-.49,2.28-1,3.46-1.39a17.08,17.08,0,0,1,1.8-.54,4.47,4.47,0,0,1,1-.14,1,1,0,0,1,.66.18.8.8,0,0,1,.27.77,3.86,3.86,0,0,1-1.05,1.75,12.07,12.07,0,0,1-1.39,1.29,20.73,20.73,0,0,1-3.15,2,35.89,35.89,0,0,1-6.93,2.69C313.88,199.85,309.09,201,304.26,202Z"></path><path d="M296.17,202a38.14,38.14,0,0,1-1.54-6.17,15,15,0,0,1-.22-3.22,6.46,6.46,0,0,1,.3-1.65,2.28,2.28,0,0,1,.5-.8,1.34,1.34,0,0,1,1.93,0,2.14,2.14,0,0,1,.5.8,6.12,6.12,0,0,1,.3,1.66,14.9,14.9,0,0,1-.22,3.21A37.15,37.15,0,0,1,296.17,202Zm0,0c.38-2.09.77-4.16,1-6.24a20.18,20.18,0,0,0,.11-3.1,5.49,5.49,0,0,0-.29-1.44c-.17-.45-.46-.71-.79-.72s-.63.27-.8.72a5,5,0,0,0-.29,1.44,19,19,0,0,0,.11,3.1C295.41,197.83,295.79,199.9,296.17,202Z"></path><path d="M298.29,202a47.73,47.73,0,0,1,1.73-6.75,20.83,20.83,0,0,1,1.37-3.24,7.37,7.37,0,0,1,1-1.51,2.41,2.41,0,0,1,.8-.62,1.57,1.57,0,0,1,.57-.12,1.6,1.6,0,0,1,.56.09,1.19,1.19,0,0,1,.72.95,2.91,2.91,0,0,1-.06,1,8.42,8.42,0,0,1-.6,1.71,22.33,22.33,0,0,1-1.75,3A44,44,0,0,1,298.29,202Zm0,0c1.34-1.89,2.68-3.79,3.86-5.76a30.19,30.19,0,0,0,1.61-3,7.26,7.26,0,0,0,.53-1.57,2.3,2.3,0,0,0,0-.73.46.46,0,0,0-.27-.37.85.85,0,0,0-.3,0,.7.7,0,0,0-.27.06,1.68,1.68,0,0,0-.57.43,7.29,7.29,0,0,0-.94,1.34,30.36,30.36,0,0,0-1.42,3.12C299.72,197.58,299,199.78,298.29,202Z"></path><path d="M300.75,202a49.12,49.12,0,0,1,7.11-7.8,23.42,23.42,0,0,1,4.33-3.11,11.47,11.47,0,0,1,2.5-1,6.06,6.06,0,0,1,1.36-.25,3,3,0,0,1,1.47.11.84.84,0,0,1,.42.38.82.82,0,0,1,.07.58,1.91,1.91,0,0,1-.39.71,7.56,7.56,0,0,1-1,1,25.43,25.43,0,0,1-2.13,1.62c-1.46,1-2.94,2-4.46,2.83Q305.49,199.67,300.75,202Zm0,0c3-1.81,6-3.61,9-5.48,1.47-.95,2.95-1.88,4.37-2.9.71-.51,1.4-1,2.05-1.6a7.28,7.28,0,0,0,.87-.89,1.19,1.19,0,0,0,.24-.43v-.06l-.07,0a2.26,2.26,0,0,0-1.12-.06,4.72,4.72,0,0,0-1.23.2,10.9,10.9,0,0,0-2.36,1,26.87,26.87,0,0,0-4.28,2.94,47.87,47.87,0,0,0-3.87,3.54C303.11,199.38,301.91,200.67,300.75,202Z"></path></g><path d="M393.68,247.28s-10.54,29-29.57,36.32-51.83,13.17-53.59,20.19,10.54,52,10.54,65.15-7,24-24.88,24-24.9-10.83-24.9-24,12.3-58.12,10.54-65.15-34.55-12.88-53.58-20.19-29.57-36.32-29.57-36.32Z" style="fill:#37474F"></path><path d="M393.68,247.28s-10.54,29-29.57,36.32-51.83,13.17-53.59,20.19,10.54,52,10.54,65.15-7,24-24.88,24-24.9-10.83-24.9-24,12.3-58.12,10.54-65.15-34.55-12.88-53.58-20.19-29.57-36.32-29.57-36.32Z" style="opacity:0.2"></path><path d="M393.68,247.28a93,93,0,0,1-6.92,14.19H205.59a94.14,94.14,0,0,1-6.92-14.19Z" style="opacity:0.1"></path><rect x="188.85" y="238.49" width="214.65" height="11.42" style="fill:#37474F"></rect><rect x="188.85" y="238.49" width="214.65" height="11.42" style="opacity:0.1"></rect><g style="opacity:0.1"><path d="M277.85,292.71c-10.9-2.39-21.74-5-32.44-8.27a82.79,82.79,0,0,1-15.64-6.12,47.44,47.44,0,0,1-7.07-4.62,26.58,26.58,0,0,1-3.12-2.89,14.93,14.93,0,0,1-1.35-1.69,5.31,5.31,0,0,1-.93-2.1,1.48,1.48,0,0,1,.47-1.42,2.3,2.3,0,0,1,1.3-.34,10.91,10.91,0,0,1,2.18.3,39.65,39.65,0,0,1,4.06,1.23c2.64.93,5.23,2,7.8,3.11q7.69,3.33,15.18,7.09Q263.29,284.44,277.85,292.71Zm0,0c-5-2.57-9.9-5.14-14.89-7.63s-10-5-15-7.4-10.07-4.77-15.2-6.95c-2.56-1.09-5.14-2.13-7.76-3a38.67,38.67,0,0,0-4-1.18,9.78,9.78,0,0,0-2-.26,1.47,1.47,0,0,0-.71.15c-.06,0-.13.22-.08.48a4.52,4.52,0,0,0,.76,1.69,14.55,14.55,0,0,0,1.25,1.59,26.58,26.58,0,0,0,3,2.8,46.81,46.81,0,0,0,6.9,4.56c4.85,2.71,10.15,4.44,15.43,6.19s10.67,3.23,16.05,4.71S272.45,291.32,277.85,292.71Z"></path><path d="M291.38,292.71c-.74-2.52-1.48-5-2.31-7.52s-1.64-5-2.59-7.41a61.39,61.39,0,0,0-3.19-7.11,15.56,15.56,0,0,0-2.17-3.13,4.06,4.06,0,0,0-1.39-1.06,2,2,0,0,0-.75-.17l-.42,0c-.12,0-.26,0-.37.1a1.32,1.32,0,0,0-.82,1.11,4.92,4.92,0,0,0,.09,1.78,17.38,17.38,0,0,0,1.23,3.62,62.39,62.39,0,0,0,3.72,6.86c1.36,2.23,2.82,4.4,4.33,6.54S289.8,290.61,291.38,292.71Zm0,0a111,111,0,0,1-9.62-12.48,50.79,50.79,0,0,1-3.9-6.9,18.82,18.82,0,0,1-1.34-3.8,6.26,6.26,0,0,1-.12-2.13,2.57,2.57,0,0,1,.44-1.11,2.17,2.17,0,0,1,1-.77c.19-.07.39-.1.58-.15s.37,0,.56-.05a3.12,3.12,0,0,1,1.15.26,5.11,5.11,0,0,1,1.71,1.3,16.71,16.71,0,0,1,2.26,3.35,49.65,49.65,0,0,1,3.12,7.29A121.54,121.54,0,0,1,291.38,292.71Z"></path><path d="M285.81,292.71c-2.58-3-5.25-6-8.05-8.8s-5.68-5.56-8.72-8.1a61.6,61.6,0,0,0-9.72-6.75,25.63,25.63,0,0,0-5.41-2.21,15.37,15.37,0,0,0-2.84-.5,6.63,6.63,0,0,0-2.71.22c-.16.08-.29.16-.32.25a.49.49,0,0,0,0,.37,3.37,3.37,0,0,0,.62,1.11,15.78,15.78,0,0,0,2,2.06,57.11,57.11,0,0,0,4.67,3.63c3.23,2.3,6.6,4.41,10,6.54s6.77,4.16,10.2,6.17S282.36,290.72,285.81,292.71Zm0,0q-10.65-5.41-20.93-11.53-5.14-3-10.07-6.45a59.76,59.76,0,0,1-4.78-3.65,16.56,16.56,0,0,1-2.17-2.18,4.12,4.12,0,0,1-.81-1.48,1.45,1.45,0,0,1,.11-1.07,1.57,1.57,0,0,1,.79-.69,7.22,7.22,0,0,1,3.19-.28,16.07,16.07,0,0,1,3,.55,26.93,26.93,0,0,1,5.59,2.33,56.35,56.35,0,0,1,9.78,7A121.3,121.3,0,0,1,285.81,292.71Z"></path><path d="M314.49,292.71c5.41-1.39,10.81-2.79,16.18-4.29s10.74-3,16-4.71,10.59-3.48,15.43-6.19a46.38,46.38,0,0,0,6.91-4.56,27.36,27.36,0,0,0,3-2.8,12.47,12.47,0,0,0,1.25-1.59,4.55,4.55,0,0,0,.77-1.69c0-.26,0-.45-.09-.48a1.4,1.4,0,0,0-.7-.15,9.78,9.78,0,0,0-2,.26,38.11,38.11,0,0,0-4,1.18c-2.61.91-5.19,1.95-7.75,3-5.13,2.18-10.17,4.56-15.21,6.95s-10,4.88-15,7.4S319.44,290.14,314.49,292.71Zm0,0q14.56-8.26,29.57-15.72,7.49-3.75,15.18-7.09c2.56-1.11,5.15-2.18,7.8-3.11a38.91,38.91,0,0,1,4.06-1.23,10.81,10.81,0,0,1,2.18-.3,2.25,2.25,0,0,1,1.29.34,1.46,1.46,0,0,1,.48,1.42,5.46,5.46,0,0,1-.94,2.1,13.82,13.82,0,0,1-1.34,1.69,26.58,26.58,0,0,1-3.12,2.89,47.44,47.44,0,0,1-7.07,4.62,82.79,82.79,0,0,1-15.64,6.12C336.24,287.66,325.39,290.32,314.49,292.71Z"></path><path d="M296.17,292.71c-.28-1.1-.66-2.24-1-3.45l-.89-3.48c-.52-2.34-1-4.69-1.35-7.07a35.59,35.59,0,0,1-.44-7.23,13.79,13.79,0,0,1,.67-3.66c.14-.29.27-.59.42-.88a4.88,4.88,0,0,1,.64-.8,2.73,2.73,0,0,1,3.9,0,4.88,4.88,0,0,1,.64.8c.15.29.28.59.42.88a13.77,13.77,0,0,1,.66,3.66,35.59,35.59,0,0,1-.44,7.23c-.33,2.38-.83,4.73-1.35,7.07l-.9,3.48C296.83,290.47,296.45,291.61,296.17,292.71Zm0,0c.3-1.22.49-2.4.74-3.52l.67-3.51c.42-2.35.83-4.7,1.07-7.07a41.92,41.92,0,0,0,.29-7.07,12.82,12.82,0,0,0-.64-3.37,2.14,2.14,0,0,0-4.24,0,12.36,12.36,0,0,0-.65,3.37,40.94,40.94,0,0,0,.29,7.07C294.22,283.34,295.18,288,296.17,292.71Z"></path><path d="M301,292.71a121.54,121.54,0,0,1,4.18-15.19,50.7,50.7,0,0,1,3.11-7.29,17.19,17.19,0,0,1,2.27-3.35,5,5,0,0,1,1.71-1.3,3.12,3.12,0,0,1,1.15-.26c.18,0,.37,0,.56.05s.38.08.57.15a2.14,2.14,0,0,1,1,.77,2.7,2.7,0,0,1,.44,1.11,6.26,6.26,0,0,1-.12,2.13,19.45,19.45,0,0,1-1.34,3.8,51.88,51.88,0,0,1-3.9,6.9A111,111,0,0,1,301,292.71Zm0,0c1.57-2.1,3.15-4.2,4.64-6.35s3-4.31,4.33-6.54a62.39,62.39,0,0,0,3.72-6.86,18,18,0,0,0,1.23-3.62,5.41,5.41,0,0,0,.09-1.78,1.36,1.36,0,0,0-.82-1.11c-.11-.05-.25-.06-.37-.1l-.42,0a2,2,0,0,0-.75.17,4.19,4.19,0,0,0-1.4,1.06,15.94,15.94,0,0,0-2.16,3.13,61.45,61.45,0,0,0-3.2,7.11c-.94,2.44-1.79,4.91-2.59,7.41S301.7,290.19,301,292.71Z"></path><path d="M306.54,292.71a121.23,121.23,0,0,1,16.27-17.48,56.35,56.35,0,0,1,9.78-7,27.16,27.16,0,0,1,5.59-2.33,16.32,16.32,0,0,1,3-.55,7.18,7.18,0,0,1,3.18.28,1.57,1.57,0,0,1,.79.69,1.41,1.41,0,0,1,.12,1.07,4,4,0,0,1-.82,1.48,15.91,15.91,0,0,1-2.16,2.18c-1.53,1.32-3.15,2.5-4.78,3.65q-4.94,3.42-10.08,6.45Q317.19,287.3,306.54,292.71Zm0,0c3.45-2,6.9-4,10.31-6s6.84-4.06,10.21-6.17,6.72-4.24,9.95-6.54a57.26,57.26,0,0,0,4.68-3.63,15.09,15.09,0,0,0,2-2.06,3.19,3.19,0,0,0,.62-1.11.49.49,0,0,0,0-.37c0-.09-.17-.17-.32-.25a6.64,6.64,0,0,0-2.71-.22,15.47,15.47,0,0,0-2.85.5,26.07,26.07,0,0,0-5.41,2.21,61.52,61.52,0,0,0-9.71,6.75,117.08,117.08,0,0,0-8.72,8.1Q310.39,288.14,306.54,292.71Z"></path></g><rect x="157.16" y="377.3" width="278.03" height="71.83" style="fill:#37474F"></rect><rect x="157.16" y="377.3" width="278.03" height="71.83" style="opacity:0.2"></rect><rect x="157.16" y="377.3" width="278.03" height="23.12" style="opacity:0.1"></rect><rect x="148.53" y="374.97" width="295.3" height="12.97" style="fill:#37474F"></rect><rect x="148.53" y="374.97" width="295.3" height="12.97" style="opacity:0.1"></rect><path d="M223.61,238.49a20.21,20.21,0,0,0-9.18,3,43.55,43.55,0,0,0-7.7,6c-1.21,1.08-2.3,2.29-3.43,3.46s-2.16,2.43-3.15,3.72a92.17,92.17,0,0,0-5.66,7.94,143.36,143.36,0,0,0-15.81,35.57c-1.9,6.23-3.54,12.54-4.82,18.93-.72,3.18-1.21,6.4-1.81,9.6l-.73,4.84L171,334l-.31,2.43-.61,4.85-.49,4.87c-.36,3.24-.55,6.49-.79,9.75s-.36,6.51-.54,9.77-.18,6.52-.27,9.79c0-3.27,0-6.53,0-9.8s.12-6.53.3-9.79.34-6.53.65-9.78l.42-4.88.55-4.88c.32-3.25.87-6.48,1.32-9.72s1.06-6.45,1.77-9.65c1.26-6.41,2.87-12.76,4.76-19a161.34,161.34,0,0,1,6.82-18.41,119.36,119.36,0,0,1,9.3-17.29,93.54,93.54,0,0,1,5.81-7.92c1-1.29,2.15-2.48,3.23-3.7s2.27-2.37,3.51-3.44a44.48,44.48,0,0,1,7.91-5.81A20.28,20.28,0,0,1,223.61,238.49Z" style="fill:#dbdbdb"></path><path d="M220.62,238.49a23.94,23.94,0,0,0-9.61,2.66,48.26,48.26,0,0,0-8.43,5.39,75.27,75.27,0,0,0-7.4,6.77,90.94,90.94,0,0,0-6.47,7.66,132.83,132.83,0,0,0-18.61,35.39,178.73,178.73,0,0,0-5.76,19.24c-1.64,6.5-2.8,13.1-3.86,19.72-.47,3.32-1,6.63-1.3,10-.18,1.67-.4,3.33-.54,5l-.4,5-.21,2.5-.14,2.52-.28,5c-.15,3.36-.19,6.71-.3,10.07,0-3.36,0-6.72.06-10.07l.15-5,.08-2.52.15-2.52.33-5c.12-1.68.32-3.35.47-5,.28-3.36.74-6.69,1.17-10,.95-6.66,2.13-13.29,3.73-19.83A178.1,178.1,0,0,1,169.16,296c4.62-12.63,10.67-24.86,19-35.53a90.45,90.45,0,0,1,6.62-7.63,73.87,73.87,0,0,1,7.55-6.71,49,49,0,0,1,8.63-5.23A24.18,24.18,0,0,1,220.62,238.49Z" style="fill:#dbdbdb"></path><path d="M222.4,238.49c-3.18.16-5.94,2-8.33,3.92a42.08,42.08,0,0,0-6.37,6.83,86.43,86.43,0,0,0-9.51,16.09,175.79,175.79,0,0,0-11.74,35.53c-1.39,6.1-2.54,12.25-3.53,18.43s-1.73,12.39-2.33,18.62-1.07,12.47-1.42,18.73c-.18,3.12-.28,6.25-.43,9.38l-.22,9.4,0-9.4c.06-3.14.08-6.27.18-9.4.25-6.27.58-12.53,1.14-18.78s1.32-12.48,2.2-18.69,2.09-12.38,3.45-18.51c2.88-12.21,6.55-24.31,12-35.64a86.24,86.24,0,0,1,9.82-16.06,42.38,42.38,0,0,1,6.6-6.72,19.68,19.68,0,0,1,1.91-1.38,18.06,18.06,0,0,1,2-1.17A11,11,0,0,1,222.4,238.49Z" style="fill:#dbdbdb"></path><path d="M222.15,238.49a7.35,7.35,0,0,0-4.1,1.73,19.64,19.64,0,0,0-3.21,3.17,46.25,46.25,0,0,0-4.93,7.58A104.83,104.83,0,0,0,203,267.7,229.62,229.62,0,0,0,194.81,303c-2,11.94-3.18,24-4.07,36.08-.46,6-.76,12.09-1,18.15l-.32,9.08-.2,9.09-.06-9.09.09-9.1c.16-6.06.37-12.12.74-18.18.73-12.11,1.95-24.2,3.86-36.19a221.79,221.79,0,0,1,8.44-35.4,105.25,105.25,0,0,1,7.21-16.73,46.52,46.52,0,0,1,5.16-7.51A20,20,0,0,1,218,240.1,7.38,7.38,0,0,1,222.15,238.49Z" style="fill:#dbdbdb"></path><path d="M222.4,238.49a3.57,3.57,0,0,0-2,.81,9.41,9.41,0,0,0-1.52,1.57,22.25,22.25,0,0,0-2.28,3.77,63.66,63.66,0,0,0-3.27,8.2,172.57,172.57,0,0,0-4.57,17.08c-2.53,11.52-4.43,23.18-5.91,34.88s-2.65,23.46-3.48,35.23q-.61,8.84-1,17.68c-.28,5.9-.42,11.8-.54,17.71-.2-11.81.09-23.64.76-35.44s1.77-23.58,3.25-35.31,3.46-23.4,6.15-34.92a171.13,171.13,0,0,1,4.86-17.07,63.76,63.76,0,0,1,3.49-8.16,22.88,22.88,0,0,1,2.4-3.74,9.33,9.33,0,0,1,1.6-1.54A3.53,3.53,0,0,1,222.4,238.49Z" style="fill:#dbdbdb"></path><path d="M220.62,238.49a1.24,1.24,0,0,0-.83.62,5.75,5.75,0,0,0-.52.94,18.17,18.17,0,0,0-.73,2c-.42,1.37-.75,2.77-1,4.18-.59,2.82-1.06,5.66-1.48,8.5-.86,5.7-1.54,11.42-2.13,17.14q-1.77,17.19-2.82,34.44c-.78,11.5-1.32,23-1.77,34.52q-.34,8.64-.56,17.27c-.18,5.76-.27,11.53-.39,17.29-.2-11.53-.11-23.06.18-34.59s.84-23,1.54-34.55,1.71-23,3.06-34.46c.68-5.73,1.45-11.45,2.41-17.13.49-2.85,1-5.68,1.7-8.49.34-1.4.71-2.8,1.17-4.17a18.28,18.28,0,0,1,.8-2,6.75,6.75,0,0,1,.56-.93A1.26,1.26,0,0,1,220.62,238.49Z" style="fill:#dbdbdb"></path><path d="M220.62,238.49c.21,11.36.31,22.73.39,34.09l.11,34.08L221,340.75l-.14,17-.25,17-.24-17-.14-17-.12-34.09.12-34.08C220.32,261.22,220.42,249.85,220.62,238.49Z" style="fill:#dbdbdb"></path><path d="M368.73,238.49a20.2,20.2,0,0,1,9.3,2.83,43.76,43.76,0,0,1,7.91,5.81c1.24,1.07,2.36,2.28,3.51,3.44s2.22,2.41,3.23,3.7a93.65,93.65,0,0,1,5.82,7.92,119.36,119.36,0,0,1,9.3,17.29,161.28,161.28,0,0,1,6.81,18.41c1.89,6.27,3.51,12.62,4.77,19,.7,3.2,1.18,6.44,1.77,9.65s1,6.47,1.31,9.72l.55,4.88.42,4.88c.31,3.25.46,6.52.65,9.78s.2,6.53.3,9.79,0,6.53,0,9.8c-.09-3.27-.14-6.53-.26-9.79s-.28-6.52-.55-9.77-.43-6.51-.79-9.75l-.49-4.87-.61-4.85-.31-2.43-.37-2.41-.73-4.84c-.6-3.2-1.09-6.42-1.8-9.6-1.29-6.39-2.93-12.7-4.83-18.93a143,143,0,0,0-15.81-35.57,90,90,0,0,0-5.66-7.94c-1-1.29-2.09-2.49-3.15-3.72s-2.22-2.38-3.43-3.46a43.55,43.55,0,0,0-7.7-6A20.17,20.17,0,0,0,368.73,238.49Z" style="fill:#dbdbdb"></path><path d="M371.72,238.49a24.27,24.27,0,0,1,9.72,2.44,49,49,0,0,1,8.63,5.23,73.87,73.87,0,0,1,7.55,6.71,94.23,94.23,0,0,1,6.62,7.63c8.27,10.67,14.32,22.9,18.94,35.53a175.89,175.89,0,0,1,5.71,19.35c1.6,6.54,2.79,13.17,3.74,19.83.42,3.33.89,6.66,1.17,10,.15,1.67.34,3.34.46,5l.33,5,.15,2.52.08,2.52.16,5c.07,3.35,0,6.71,0,10.07-.1-3.36-.14-6.71-.3-10.07l-.27-5-.14-2.52-.22-2.5-.4-5c-.14-1.67-.36-3.33-.53-5-.33-3.34-.83-6.65-1.3-10-1.07-6.62-2.23-13.22-3.86-19.72a178.78,178.78,0,0,0-5.77-19.24A132.83,132.83,0,0,0,403.63,261a90.83,90.83,0,0,0-6.46-7.66,76.42,76.42,0,0,0-7.4-6.77,48.72,48.72,0,0,0-8.44-5.39A23.94,23.94,0,0,0,371.72,238.49Z" style="fill:#dbdbdb"></path><path d="M370,238.49a11,11,0,0,1,4.52,1.18,17.1,17.1,0,0,1,2,1.17,18.66,18.66,0,0,1,1.92,1.38,42.32,42.32,0,0,1,6.59,6.72A86.29,86.29,0,0,1,394.85,265c5.48,11.33,9.14,23.43,12,35.64,1.37,6.13,2.49,12.31,3.45,18.51s1.72,12.43,2.2,18.69.9,12.51,1.14,18.78c.11,3.13.12,6.26.19,9.4l0,9.4-.23-9.4c-.14-3.13-.24-6.26-.43-9.38-.34-6.26-.76-12.5-1.41-18.73s-1.41-12.44-2.34-18.62-2.14-12.33-3.52-18.43a177,177,0,0,0-11.74-35.53,85.93,85.93,0,0,0-9.52-16.09,42.08,42.08,0,0,0-6.37-6.83C375.89,240.46,373.13,238.65,370,238.49Z" style="fill:#dbdbdb"></path><path d="M370.19,238.49a7.35,7.35,0,0,1,4.19,1.61,20.1,20.1,0,0,1,3.33,3.12,46.46,46.46,0,0,1,5.15,7.51,104.34,104.34,0,0,1,7.21,16.73,220.75,220.75,0,0,1,8.45,35.4c1.9,12,3.12,24.08,3.85,36.19.37,6.06.59,12.12.74,18.18l.1,9.1-.07,9.09-.2-9.09-.32-9.08c-.25-6.06-.56-12.11-1-18.15C400.72,327,399.5,315,397.53,303a229.59,229.59,0,0,0-8.18-35.32A104.87,104.87,0,0,0,382.43,251a46.25,46.25,0,0,0-4.93-7.58,19.26,19.26,0,0,0-3.21-3.17A7.32,7.32,0,0,0,370.19,238.49Z" style="fill:#dbdbdb"></path><path d="M370,238.49a3.53,3.53,0,0,1,2.05.75,9,9,0,0,1,1.6,1.54,22.23,22.23,0,0,1,2.4,3.74,62.37,62.37,0,0,1,3.49,8.16,168.49,168.49,0,0,1,4.86,17.07c2.7,11.52,4.59,23.21,6.16,34.92s2.58,23.51,3.25,35.31.95,23.63.75,35.44c-.12-5.91-.26-11.81-.54-17.71s-.56-11.79-1-17.68c-.83-11.77-1.93-23.53-3.48-35.23s-3.38-23.36-5.91-34.88A167.23,167.23,0,0,0,379,252.84a63.61,63.61,0,0,0-3.26-8.2,23.63,23.63,0,0,0-2.28-3.77A9.47,9.47,0,0,0,372,239.3,3.57,3.57,0,0,0,370,238.49Z" style="fill:#dbdbdb"></path><path d="M371.72,238.49a1.26,1.26,0,0,1,.87.6,5.83,5.83,0,0,1,.55.93,18.34,18.34,0,0,1,.81,2c.46,1.37.82,2.77,1.16,4.17.67,2.81,1.21,5.64,1.71,8.49,1,5.68,1.72,11.4,2.4,17.13,1.35,11.46,2.27,23,3.06,34.46s1.26,23,1.55,34.55.38,23.06.17,34.59c-.11-5.76-.21-11.53-.39-17.29s-.32-11.51-.55-17.27c-.45-11.51-1-23-1.77-34.52s-1.64-23-2.83-34.44c-.59-5.72-1.26-11.44-2.12-17.14-.43-2.84-.9-5.68-1.49-8.5-.3-1.41-.63-2.81-1.05-4.18a16.37,16.37,0,0,0-.73-2,6.56,6.56,0,0,0-.51-.94A1.24,1.24,0,0,0,371.72,238.49Z" style="fill:#dbdbdb"></path><path d="M371.72,238.49c.21,11.36.3,22.73.38,34.09l.12,34.08-.11,34.09-.14,17-.25,17-.24-17-.14-17-.12-34.09.12-34.08C371.42,261.22,371.52,249.85,371.72,238.49Z" style="fill:#dbdbdb"></path></g></svg>